/* XPM */
static char *_9e214eda26b413ec7f2a5f43b297222ZXpdDBPgRhgX1g7j[] = {
/* columns rows colors chars-per-pixel */
"40 40 103 2 ",
"   c #171A24",
".  c #1A1D23",
"X  c #161B2F",
"o  c #1B1F2A",
"O  c #1F2224",
"+  c #1F222A",
"@  c #1D2131",
"#  c #222426",
"$  c #272826",
"%  c #292B26",
"&  c #22252D",
"*  c #26292D",
"=  c #2B2D2B",
"-  c #2F312D",
";  c #363627",
":  c #31332F",
">  c #37392F",
",  c #393A2B",
"<  c #232730",
"1  c #262931",
"2  c #2A2D32",
"3  c #2E3132",
"4  c #333532",
"5  c #363834",
"6  c #393B33",
"7  c #3F4033",
"8  c #44432A",
"9  c #48472B",
"0  c #4C4A2C",
"q  c #56532F",
"w  c #5E5B2D",
"e  c #474731",
"r  c #4B4A33",
"t  c #555332",
"y  c #595631",
"u  c #5D5A34",
"i  c #615D2B",
"p  c #605D32",
"a  c #66612E",
"s  c #6A652F",
"d  c #726C2E",
"f  c #6A6532",
"g  c #6D6934",
"h  c #736E32",
"j  c #767034",
"k  c #787231",
"l  c #80782E",
"z  c #837C33",
"x  c #8D8532",
"c  c #908734",
"v  c #928932",
"b  c #998F34",
"n  c #9D9435",
"m  c #A09636",
"M  c #A59A35",
"N  c #AA9E36",
"B  c #AEA236",
"V  c #B3A734",
"C  c #B6A935",
"Z  c #BAAD37",
"A  c #BFB137",
"S  c #C2B437",
"D  c #C7B936",
"F  c #CBBC37",
"G  c #CBBC38",
"H  c #CFC037",
"J  c #D1C137",
"K  c #D5C537",
"L  c #D5C637",
"P  c #DBCA37",
"I  c #DFCE37",
"U  c #D8C838",
"Y  c #D9C938",
"T  c #DECD39",
"R  c #E1D039",
"E  c #E7D539",
"W  c #E8D638",
"Q  c #E8D63A",
"!  c #ECDB3A",
"~  c #EFDD39",
"^  c #F2DF39",
"/  c #F3E038",
"(  c #F4E138",
")  c #FAE638",
"_  c #F8E53A",
"`  c #F9E63B",
"'  c #FAE63A",
"]  c #FBE73A",
"[  c #FBE83A",
"{  c #FEEA39",
"}  c #FFEB39",
"|  c #FEEA3A",
" . c #FFEB3B",
".. c #FFEC3B",
"X. c #FFED3B",
"o. c #FFF13A",
"O. c #FFF03B",
"+. c #FFF33B",
"@. c #FFF73B",
"#. c #FFFA3B",
"$. c #FFFB3B",
"%. c #FFFC3B",
"&. c #FFFF3C",
/* pixels */
"4 4 4 4 4 4 - = 3 4 4 4 6 - 4 - 5 5 5 5 4 4 4 : 4 4 4 4 4 : - = 4 4 4 4 4 3 : - ",
"4 5 4 4 3 3 4 = 4 3 4 3 * & & + * < * & < & & & < 3 4 4 - 3 : = 4 4 4 4 4 - - - ",
"5 4 4 4 4 4 : : 4 6 6 r n n n n m m n n n n n n m p 4 5 4 4 4 = 4 4 4 4 4 4 - 4 ",
"4 4 4 4 - 3 = % - 4 * u O.%.%.$.$.@.$.&.$.$.$.+.%.z 1 3 = = = = 3 4 4 4 - - = - ",
"% % $ % = = ; ; ; ; = i ) | ` ` ) ` ) `  .) _ ` X.l % , > , , % $ $ $ = = = = = ",
"4 3 = 4 6 2 n ! T R R E  .| |  . ... . . . . . .X.! T R R E Z 4 4 3 = 4 4 4 4 4 ",
"4 4 = 4 2 @ M $...O... .| |  .|  . . . . . . . .| X.X.X.X.+.J = < = = 4 4 4 4 4 ",
"4 4 * r j f S O.[ [ | |  .|  . . . . . . . . . .| | X.[ X.X.Y h h t * 4 5 5 4 5 ",
"= = . d O.X.X.| | | | | | | |  . . . . . . .|  .| | | |  .|  .| $.b   - = = = - ",
"4 4 & h X.| X.| | | | X.| | X.|  . . . . . . . .X.|  . .|  .| ` $.b + - % = 4 4 ",
"4 5 * h X.| | | | | | | | X.X.|  . . . . . . . .|  . .| | | | ` +.b * > = = 5 5 ",
"6 4 1 j O.| X.X.X.X.| | | | X.|  . . . . . . . .| |  . . .| | | $.n & : - = 5 5 ",
"4 4 * h ) ^ ^ ^ ( | | | | | | | | [  .| |  . . . . . . . . .| [ +.n 2 6 = % 6 6 ",
": = = : 9 8 8 8 9 P X.X.| | [ {  . .|  . . . . . . . . . . .|  .| ~ P W u # $ % ",
"4 5 4 4 2 = 2 % - P +.O.X.O.O.X.O.|  .| |  .|  .| | |  .|  .|  .| X.O.X.g 1 : : ",
"4 5 4 4 : : : : 6 Z P L L L L L L ^ | | | | | | |  .|  .|  . .| | | | | f & : : ",
"5 5 5 4 4 4 4 - 5 6 5 5 5 : 5 : 4 D O.) [ [ [ [ ) | | | | | | X.| | | { g = 4 4 ",
"= = % = = = $ $ $ % % = % = % $ # G &.O.%.+.+.$.$...| | | X.| | | | | | i + = % ",
"3 = $ - - - - - - = = - : : - - = l N m m M M M n Y X.X.|  ... .| | { X.f & : : ",
"4 3 = 4 5 4 4 4 4 - - 5 4 4 4 : 4 * & 1 1 1 * * + M O.[ |  . . .| | | } f 2 4 4 ",
"4 4 = 4 5 4 4 4 3 - - 5 4 4 4 4 - : : 5 5 : : 5 = B @.[ |  . . .| | | | g 2 5 5 ",
": - = 4 : : : - - - - 4 4 4 4 : - m J G G G F F D Q |  .|  . . .| | | | f 1 - 4 ",
"= $ $ $ # $ = = = # # O O O $ & # D %...+.O.O.O.+. .|  .|  . . .| | | | w . = = ",
"5 4 4 : - - 5 4 4 t y t t t u u t G O.) | | X.| [  . .|  . .|  .| | | | a & 5 5 ",
"4 4 : : - : 6 4 6 U ) ^ ^ ( ( ( / `  .| | | | |  .| |  .|  . .| X.| ) | a & 6 5 ",
"5 4 4 3 & & 2 1 2 U +.| ..| ...... . .|  . . . . ... . . . .|  .| X.+.$.f # 6 6 ",
"- - $ 0 v x x x v Q ..| | | | | | | |  .|  . . . . . . . . .| | X.F v m 9 # = = ",
"4 4 1 j $.X.O.$.+.| | ..| | | | | |  .|  . . . . . . . . . .| ` $.v X * = : = - ",
"4 6 2 j | [ | [ ` | | | |  . . .|  . . . . . . . . . . . . .| [ $.n 1 6 4 - - 4 ",
"5 6 1 j X.[ | | |  ...|  . . . . . . . . . . . . . . .| |  .| ` +.b 1 4 4 : 3 - ",
"4 4 1 k O.X.X.| | | |  .|  . . . . . . . . . . . . . . . .| | ..$.n 1 4 - 4 4 - ",
"- - + g ^ Q ( | | | | | |  .|  . . . . . . .|  .| | | | | | ` E ` x o : - - - - ",
"4 - = 5 7 4 N O.[ | [ | | | | | | | |  . . .| |  .| ` | ) +.G > > 4 = 4 5 4 4 4 ",
"4 - - 4 4 1 B %.O.O.$.O.| X.| | | X.X.|  . . . .| +.+.X.O.%.Y 4 = 4 = 4 4 4 4 4 ",
"4 - = 4 5 3 z S C Z V D `  .| | | | | | | | | | X.H V Z Z A n 4 : - : 4 5 4 4 4 ",
": - = - - = 3 * = = + t ` ..| | | | | | | | | | O.j o = * $ = = - - = - = = 3 3 ",
"4 4 - - = = 4 4 4 : 2 p | X.X.X.X.X.X.X.X.X.X.X.+.z * : - = 5 4 : : - - = = 4 5 ",
"4 4 4 - - - 5 4 4 4 - , f f g g g g f f f f g g g e - : - - 5 4 4 4 4 - = - 5 5 ",
"5 4 3 4 - : 5 5 4 4 : 4 & * 3 2 2 1 * * & * 2 2 2 3 : 4 = - 5 4 4 4 4 4 - = 5 5 ",
"4 - - - = = 4 - 4 4 - - - - 4 4 > : : : - - 4 : : : - - = = : 4 - - - - = = 4 - "
};
