/* XPM */
static char *_3a8fadfa1ab43b68565f0fdd0cf6716YqxP7aOjXikaLYRr[] = {
/* columns rows colors chars-per-pixel */
"40 40 92 1 ",
"  c #1A1D26",
". c #1A1E2A",
"X c #1A1F33",
"o c #1F2227",
"O c #1E2129",
"+ c #232527",
"@ c #272825",
"# c #292B27",
"$ c #22252C",
"% c #26292D",
"& c #2C2E2B",
"* c #2F312D",
"= c #31332E",
"- c #3A3A2D",
"; c #232730",
": c #262931",
"> c #2A2D32",
", c #2E3132",
"< c #333532",
"1 c #373834",
"2 c #3A3B34",
"3 c #3F4032",
"4 c #44442C",
"5 c #48472F",
"6 c #4F4E2E",
"7 c #53512E",
"8 c #454533",
"9 c #484832",
"0 c #535132",
"q c #5B5932",
"w c #635E2E",
"e c #65612F",
"r c #666331",
"t c #6A6633",
"y c #6E6933",
"u c #736E34",
"i c #767134",
"p c #7B7535",
"a c #837C34",
"s c #9C912E",
"d c #8C8534",
"f c #938B35",
"g c #998F36",
"h c #9D9335",
"j c #A09635",
"k c #A39936",
"l c #A99D37",
"z c #A19738",
"x c #ADA237",
"c c #B2A634",
"v c #B4A835",
"b c #B8AB36",
"n c #B9AC37",
"m c #BEB138",
"M c #C3B535",
"N c #C9BA37",
"B c #C3B639",
"V c #CBBD39",
"C c #CFC039",
"Z c #D2C237",
"A c #D5C537",
"S c #D9C937",
"D c #DCCB37",
"F c #D2C338",
"G c #D5C639",
"H c #DDCC38",
"J c #E1CF39",
"K c #E2D139",
"L c #E7D539",
"P c #E9D73A",
"I c #EBD93A",
"U c #EDDB3A",
"Y c #F2DF39",
"T c #F3E03A",
"R c #F5E23A",
"E c #F6E33B",
"W c #F8E43B",
"Q c #FBE73A",
"! c #FBE83A",
"~ c #FCE93B",
"^ c #FDE93B",
"/ c #FEEA3A",
"( c #FEEB3B",
") c #FFEC3B",
"_ c #FFF33B",
"` c #FFF53B",
"' c #FFF33C",
"] c #FFF53C",
"[ c #FFF83B",
"{ c #FFF83C",
"} c #FFFA3C",
"| c #FFFF3C",
/* pixels */
"<<<<<=*&<<<<=<,*<1<<<***<<<<<=**=<<<<<**",
"<1<<<,<&<11<<=**,<<<<==*<<<<===*<1<<<***",
"11<<<<<&:>::%,**<<<<<=**<1<:%%%$,<<<<<<<",
"<<<,*=&*upiip0&*,<<<,**&<,2iiuii9,<<&*&*",
"&#@&&*&-T'))[f+&##@&&&&##+4)__)`yo#&&&&&",
"<,#<<>$*I(/Q_f:<=*&<<<<,=&4E/!/)r.+<<<<<",
"<,&<,axlE(/!_f:<<**<<<<<=&5E)//)mkg3<<<<",
"<=&<<B|_(//Q'f:<*<*111<,<>5T)/)/'|I8<1<1",
"&&@&%v'Q/((!]d#-&###&&&&=&4T)//)Q(H-#&&,",
"<<**#v]///(/)PGF0>==&&<<nDS/)////]K3#&<<",
"<<*&$c]!((((/(])q><==*<1H`))/////(H2$&11",
"1<2q0M'/((/(///Tq>=<&=12G_!))/)/((Lrq4<1",
"1:r/Q/(/((Q/(/(Eq&<&&&1<G(!(//)/(/(Q`h%2",
"=$r)///(/((((//T7%&&&##&G'/()/)///(/[h *",
"2>y)//(/(((((/(Tq,1<<<==G_/((/)/)//![k$<",
"2:t)///(((((//(Tq>1<====G_/(()/)/)/![h$=",
"2,y(//(((((((/(Y0,11<,&*G'/((((((((Q}z$1",
"&Ow(//(((((((((QVVh&+aVBT//((((((((Q}h *",
"<$w/(Q(((((((/(('}V<%l|`)/)/(((((((Q`h$=",
"<:r/(/((((((/(//Q'N1:k_!////(((((((Q[k;1",
"1&r/(/(((((((/((Q_N2>k`!(!(((((((((Q}k:1",
"<%r((/((((((((((Q_N1%k`!/((((((((((!}h;<",
"&+w///(/(((((((~/'M# s`!((((((((///Q}hO*",
"1:t(Q/(//(((((((/_V<%h`!(((((((////Q`z:2",
"1:t]'///((((((((!`N&.h]Q(((((((()/))|k:2",
"1<9apZ'/((((((((/)IxkG'Q((((((((/)Udaq,2",
"&&&$.c]/((((((((//(]]/(/(((((((/Q)H=O+*&",
"<<<=&v_Q((/((((//)/!///(Q(((((///_K4**&*",
"<1<<<n'Q/(//((((/(((Q((/(((((/(//)K8,***",
"<<1<>m|((/((((((/(((((((((((/(//)`P8,<<<",
"<<<<,hSCQ(/((((/(((((((((/(((//(DAm2*==*",
"=&&**=*-P(QQQQ/(/(((((((/(/QQQQ(t@=*<**,",
"<**<1<,2Q|]]['/((((((((((((}}]`|u$&<<<<<",
"<**<<<<-dhghgC(//(////((((Thhhhh0&*<1<<<",
"<**<<<<,$$$:Xh]!((//((((!)K,::;;>*&<<<<<",
",*&&****==*-$h}((](((((()'P2**==<*&*&&,<",
"<=**&*1<<*<*&6iyuyyytyuuyut=&&<<<***&&<1",
"1<<***<<<<***%>>:%%%$$>::%%=**1<<<<**&11",
"1<,<**11<<<<*,21111===111<<=&*1<<<<<&&11",
"<***&&,=<,**&&<<==**&&<*===*&&*<****&&<,"
};
