/* XPM */
static char *_50502c0bef944c69f8163babb330a99nXEjntzQwBXdJMad[] = {
/* columns rows colors chars-per-pixel */
"40 40 102 2 ",
"   c #1B1F25",
".  c #1A1D2A",
"X  c #1A1F33",
"o  c #1F2227",
"O  c #1E212A",
"+  c #262826",
"@  c #2A2B27",
"#  c #22252C",
"$  c #26292D",
"%  c #2C2E2B",
"&  c #2F312D",
"*  c #31322E",
"=  c #37382E",
"-  c #3B3C2F",
";  c #232731",
":  c #262A31",
">  c #2A2D31",
",  c #2E3132",
"<  c #333532",
"1  c #363834",
"2  c #3A3B34",
"3  c #3F4033",
"4  c #47462C",
"5  c #48472E",
"6  c #49482F",
"7  c #434432",
"8  c #484731",
"9  c #4D4C32",
"0  c #545232",
"q  c #595734",
"w  c #5C5934",
"e  c #635E2E",
"r  c #6C672F",
"t  c #7C752E",
"y  c #666232",
"u  c #6A6534",
"i  c #6E6933",
"p  c #726D33",
"a  c #767133",
"s  c #787334",
"d  c #7F7935",
"f  c #817B35",
"g  c #878036",
"h  c #8A8336",
"j  c #938B35",
"k  c #988F34",
"l  c #9D9435",
"z  c #A09635",
"x  c #A19837",
"c  c #A39837",
"v  c #A49937",
"b  c #A89D36",
"n  c #A89E37",
"m  c #ACA137",
"M  c #ADA237",
"N  c #B2A534",
"B  c #B4A834",
"V  c #B6AA37",
"C  c #B9AC37",
"Z  c #BCAF36",
"A  c #C9BA36",
"S  c #C8BA37",
"D  c #CABB37",
"F  c #C2B538",
"G  c #CABC38",
"H  c #CCBD39",
"J  c #CFC03A",
"K  c #D0C137",
"L  c #D2C337",
"P  c #D4C437",
"I  c #D3C339",
"U  c #D5C539",
"Y  c #D8C839",
"T  c #DACA38",
"R  c #DDCD38",
"E  c #E0CF39",
"W  c #E1D039",
"Q  c #E8D739",
"!  c #E8D63A",
"~  c #E8D73A",
"^  c #E9D83A",
"/  c #EDDB39",
"(  c #F1DF3A",
")  c #F2DF3A",
"_  c #F6E33A",
"`  c #FAE63A",
"'  c #FAE73B",
"]  c #FBE73B",
"[  c #FBE83A",
"{  c #FCE83A",
"}  c #FEEA3A",
"|  c #FEEA3B",
" . c #FFED3A",
".. c #FFEC3B",
"X. c #FFF23B",
"o. c #FFF43B",
"O. c #FFF33C",
"+. c #FFF53C",
"@. c #FFF83B",
"#. c #FFFA3C",
"$. c #FFFC3C",
"%. c #FFFD3D",
/* pixels */
"< < < < < < & % * 1 < < < & * & < 1 < < < & * % < < 1 < < < % % < < < < < * & , ",
"< 1 < < < & < % < < < < < * * & < 1 1 * = < < * < 1 < < * * * % , 1 < < < & & & ",
"1 1 < < < < < % < 1 < < < > # # > > > > : # $ # > > > < < < < % < < 1 < < < & < ",
"< < < , * & % % * * < * & 0 a i i p p i p i p i p p u < % < % @ & < < * & & & & ",
"% + + @ % % @ @ % @ @ * # l #...+.| ..+.| ....+...+.~ = % % * % @ $ + % % % @ & ",
"< , @ < 1 < < , ; O O : X k +.] | | | | | | | | [  .W > ; : : # & , % * < 1 , < ",
"< & % < < < < < j l k l l J ..} | | } } } } } } } ..( l l l l l 0 $ & < < < , 1 ",
"< * & < 1 1 < 2 ` %.+.@.O.+.| | | ....| ....| | |  . .+.#.@.O.#.a # & < 1 1 < < ",
"& % + % % & @ = Q } ` ` } } } | } | ..| ..| ..| } ..} [ [ ` [ ..r # @ @ * % & & ",
"< & & & $ k T K `  .} } | | | } | ..| ..| ..| | | } | | | } } | R K Z - @ @ < < ",
"< < * * $ Z %. . .} }  ...| ..| ..| ..| ..| | ......| .. .|  .}  .+.~ 7 % % 1 1 ",
"1 < < < % V O.` } } } } | ..| ..} ..| | } | | } | | ..| | } | } }  .R 7 % & 1 1 ",
"< < & * % V +.} } } } ..| ..| } |  .} } | } } | } | ..| | | } } }  .E 7 % % 1 < ",
"& & % # . N +.[ | } | ....| ..| } | ..O.+. .| } ....| ....| ..} } X.R * O + % % ",
"1 , 9 g d I X.} | | ..| | ..| | }  .^ M b Y O.} | | ..| ..| | | }  ./ h g w > * ",
"1 > u o.X. .} } | ..| ....| ..| } O.G > O l +.[ } ..| ..| ..| ..}  . . .%.v # * ",
"2 > i | } } } } } | ..| | ..| | [ O.H 1 > v @.[ } } | ..| ..| } |  .} ` +.v # < ",
"% # e  .} } ..} ....| ....| ..| } O.A & o l #.` | ....| ..| ..| } | | ` #.l o & ",
"< # e } | } | ..| ....| | ....| } o.A * # v o.[ | | ....| ..| ..| ..| ` @.l # * ",
"< $ y  .| } ..| ..| | ..| } | | [ X.G 1 > v @.[ | } | | ..| ..| ..| ..` @.l : 1 ",
"< $ u  .| } | ..| ..| ..} |  .} ` X.A 2 > c O.` } ..} | | ..| ..| ..| } +.x : 1 ",
"< $ y } | } ..| ..| ..| | } | | X.%.K < : b %. ...} | } ..| ..| ..| ..` #.z # < ",
"% # e  .} } | ..| ..| ..| } | | A G l @   t I F ( ..} | | ..| ..| .. .` #.l . * ",
"1 $ u  .} } ..| ..| ..| | } .._ 0 $ * * % & , < U O.} | ..| ..| ..} } ` o.v : 2 ",
"1 % u  .} } } } ..| ..| } } | _ q % < < % % < - U O.{ | | | | ..} | | ` #.x ; 2 ",
"1 > u  .} } ..} | | | ..| }  ._ w > * < < * 2 2 U O.} } | | | } | } } } +.x > 2 ",
"* # y  .| | } |  .| ..| | } .._ 0 $ % % @ @ % @ U O.{ } ..| ..|  .| ..| #.l O * ",
"< $ u } ` | ..} | | | } | } .._ q > < % < % % * U X.} } | } ..} | } | _ +.l O * ",
"< < 7 w 0 G O.[ | | } | } } } ( q > 1 < & * * * U +.` } ..}  .} }  .~ y w 8 & * ",
"< 1 < > : V o.[ | | |  .}  .X.} w , < < < < > * Y #... .} | | } } O.E 2 : , & , ",
"< < < < , V o.} | | } } } ~ U I 0 , < < < * < * C R Y } ..} | | }  .R 7 * * < & ",
", % % & % V X.` } } } { O.j $ - % % % * & * & % = % 6 _ ..} } } [  .R 7 & * & , ",
"< & & < , F %.o. .} | [ +.j ; < < & & < 1 < < & & $ 6 ` ..} ..| O.%./ 8 < < < < ",
"< & & 1 < f m n _ ..} } +.j > < * & & < < < < < < % 9 _ ..} | ..Z v k 2 < < < < ",
"< & % < < , # * ~  .[ [ X.j : = & & & 1 1 < < < < % 4 _  .`  . .y . $ < 1 < < < ",
"& & % & & & < 2 ( O.....#.j # * & & % & % % , & & $ 4 | O. . .o.p $ & & % % , < ",
"< < & & & % < < i a a a a 9 < * & < & & % % < < < , 1 p p p a s 8 & * & % % < 1 ",
"< < < & & & 1 < > : # $ # $ 1 1 < < , * & & 1 < < * & $ O + > > , , < & % & < 1 ",
"1 < * < & & 1 1 1 1 < < * & 1 < 1 < < , & & 1 1 < < < < & * 1 1 1 < < < & & 1 1 ",
"< , & & % % < & * & & & & & < & * & & & % % < & * & & & % % * < & & & & % @ & < "
};
