/* XPM */
static char *result[] = {
/* columns rows colors chars-per-pixel */
"40 40 96 2 ",
"   c #0A0B0B",
".  c #141616",
"X  c #191C1B",
"o  c #252726",
"O  c #262929",
"+  c #2B2D2D",
"@  c #2F3131",
"#  c #333535",
"$  c #363938",
"%  c #3B3D3D",
"&  c #3E403F",
"*  c #3E4140",
"=  c #424444",
"-  c #454847",
";  c #464948",
":  c #4A4D4C",
">  c #4D504F",
",  c #4E5252",
"<  c #525555",
"1  c #545954",
"2  c #575B5A",
"3  c #5B5E5D",
"4  c #5A605F",
"5  c #666E5C",
"6  c #5E6161",
"7  c #626565",
"8  c #646866",
"9  c #656768",
"0  c #666B6A",
"q  c #6A6D6D",
"w  c #6B7263",
"e  c #73796B",
"r  c #6D7271",
"t  c #727575",
"y  c #747975",
"u  c #757979",
"i  c #7B7C7C",
"p  c #82877D",
"a  c #7E8181",
"s  c #838484",
"d  c #868D82",
"f  c #868788",
"g  c #868989",
"h  c #8A8B8B",
"j  c #8D9884",
"k  c #8D928D",
"l  c #919A85",
"z  c #8E9191",
"x  c #939595",
"c  c #959999",
"v  c #9A9B9B",
"b  c #9BA491",
"n  c #9EA19E",
"m  c #A3AB9E",
"M  c #9B9FA0",
"N  c #9DA1A1",
"B  c #A3A4A4",
"V  c #A5AAA7",
"C  c #A8AEA3",
"Z  c #A6ABAA",
"A  c #AAACAC",
"S  c #ACB0AF",
"D  c #B2BAAD",
"F  c #ADB2B2",
"G  c #B2B6B5",
"H  c #B4B9B5",
"J  c #B5BABA",
"K  c #B9BDBD",
"L  c #B9C1B6",
"P  c #BBC2BD",
"I  c #C0C8BF",
"U  c #BDC2C2",
"Y  c #C1C6C5",
"T  c #C3C8C6",
"R  c #C5CACA",
"E  c #C9CECD",
"W  c #CCD1C7",
"Q  c #CBD0CD",
"!  c #CCCFD0",
"~  c #CDD2D2",
"^  c #D1D6D5",
"/  c #D3D8D7",
"(  c #D5DADA",
")  c #D9DEDD",
"_  c #DBE0DF",
"`  c #DDE2E1",
"'  c #E2E6E5",
"]  c #E3E8E7",
"[  c #E4E7E8",
"{  c #E5EAE9",
"}  c #EAEDED",
"|  c #ECF0EF",
" . c #EEF2F2",
".. c #F2F5F5",
"X. c #F6F9F9",
"o. c #FDFEFE",
/* pixels */
"j D L H n V A A Z M M Z J F Z Z F U U 6 4 F N Z N Z N N Z N N N B A B B A B A i ",
"g ` ( T H ^ ^ E U ~ `  . .] / U U ( X.a * { { X...} ..` { } / E ` ....o.o.} X.K ",
"d P V G F Y Y R ( ] ` ` ( ( U Z Z F ` a * ` ) ] ( ` ` ( / R F J ! [ [ ' _ ! [ A ",
"d H Z E R E ! R ( { { ] U U U Z U P ) a * ] ` ` ` ( ` ` ) E R E W [ ' [ ^ G ' S ",
"y G K K Y W ) ! U ( / U U U / U U U { a * ( U ( E ~ ) ) ~ ~ ` ` _ } } [ Y B ( A ",
": n R K Y ( ( ^ U J F J U U } ` ] ( ..z * U U U R R ! R U / ) { [ [ } ' Y A Y A ",
"; B E ~ E E ! E J J F U U ` ) / ( U ] a * ) U U K G F Y E / ~ ~ ! ) [ ) ! ! ' A ",
"i R R E U U ( ~ F U J U ( / ~ ~ U Z U a * ]  .( U F Z J E ~ U J ! ) ) ^ ( } X.A ",
"g / R ~ L L / U L Z U U E U ` ~ G z G f # R } [ E J Z G / R Y ~ ) ! Y Y ) _ ..K ",
"; 8 6 6 4 2 0 8 * 4 4 4 2 6 0 4 : o & ;   @ - ; * @ @ # * * : * = % # # & $ > 9 ",
"Z Z z w p 5 5 e c 6 a Z n N N N v h f h v v v v v v c c n 7 7 B v v v v x v v B ",
"/ U U b L m L b U a 4 U ` { ..| ! S A K Y ( | | { | [ [ o.B < ..} ..} [ [ } ` [ ",
"P N S U U U W m Q a * U / ` } / G J J ! E Y R ~ ~ U J Y } v % ) ~ ^ ! R ) ) / E ",
"U S S U ( P _ L Q k 1 ( `  .` U U T Y ) _ ) U J ! J G ! X.n & ( Y K R E ~ ` ` ) ",
"U U P U ( U ~ P _ k 0 ] ` | ~ J Y G F ^ ' ! B B U ^ Y Y } n % R Z A R ! ^ ! R E ",
"Q ^ E U ) ` ] L W k 4 ~ ` ` ^ E U F N ! ) R A K K K G F [ n & ~ Y J Y ^ ( T J R ",
"~ ( / R ~ / ~ G W f $ A ) [ { ! Y S v G ( ^ ^ E { K A E X.n = ( ~ ~ ( ~ / / E E ",
"~ ( / Q Q J F J I i $ v D I H C J U G E { [ ' [ | Y Y ) o.v & ^ ( ` ` ` ` ` ) U ",
"_ / U F U U J R ) p % m b b l l G Y J /  . . .| _ B J ! ..A # Y ` ` ` ( {  .} ~ ",
"r 8 2 , : < 6 4 t % X 1 8 9 1 1 8 2 4 0 < > < > & @ # # > 3   $ * , * * : < < > ",
"0 a a s i i s i i i i i s s s i s i f - > f f f i i i i t q i i a a a a a a z 6 ",
"i | { o.......{ } | ) ^ } o.o.o.o...o.f 0  .[ _ Y ( ' ^ ^ ^ (  .X. .) U ) ` ..U ",
"9 ` ) ` ) ) _ ^ ^ R S J ^ [ ' ' ) ! ..a 2 R F G F U Y U ^ ( ) ) ` / U Z S U U U ",
"u { ` ` ) _ ' _ ) Y Y R ^ [ ' ' ^ K | p 3 R A Y E R E E ^ } } ` ~ U U S J J / J ",
"0 ` ~ ) ~ ~ ` ) ^ E _ ) ) } } [ Y B { a 2 U J U Y R ( ! E ^ / / U U ~ U ( U ( J ",
"6 E U U R U Q R R ^ ) } [ ' | ` K B ( f # N U U U ^ ) ^ ! U G G U U ` { { ( ` J ",
"8 ) R F K J F U R ^ ^ ( ^ ) ' ( E Y ` f o c ~ / E ! ! ! K J F F U ^ { ` ` U ` P ",
"r ] ` E K A A U ^ ( R U ^ ) ) ^ ( [ o.a : U U U Y K ^ ^ J J K K ~ ` ` ` U F U U ",
"6 ` X.` E K G Q [ ' ) ) ' ( ~ ! [ } o.f 6 ` ~ / U J ` ` J S J U / ( ` ) U N F G ",
". ; 6 4 , * % ; > 3 3 < 2 : & = < : t 3 # t r r 6 6 u r 4 2 q r q r i r 4 $ % 0 ",
"i u i a i i u u s & 3 a i i i i i i i f z z z a g z z z z 6 6 z f h h g s t t t ",
"! { X... ... . .o.f t o...o...} } | } X.` E ~ ~ ` ` ..`  .S 6 ~ ) { .. .) J F J ",
"Y Y E ~ ! Y K R X.i : ' ~ ) ! R ) ) ! E U n Z U E ) ` E / M $ F ~ ` { ) J F F U ",
") ^ U Y E G J ! o.i < ' Y K E E ^ ' ' ( Y A Z U ~ ` ` ` ] M = R ) } { E K R R ) ",
"` ( A G ! E E ! o.a - R B A Y ! ~ ~ E E U U G J ^ ` { ` { Z 2 ` ` } ) J R K F ~ ",
"( E J U ) ) ^ U X.i > ^ B A ! ( ^ Y J R E ^ ! T ( ` ` / ` N , ^ ` ] ~ R U G N U ",
"~ ~ ~ Q ' ` R Y o.i < ' U ! ) ( ^ ^ R E E ( ( R ~ ( ~ U ` N @ N ( ' ' ~ Y G N J ",
"' ' ` ' { ) E ( o.i < ) U ^ ` _ ) ` ^ K R ( ^ E ~ U U U / M + z Y { [ E J K F U ",
"...... .' ) ^ ^ o.s & ! ^ ( _ ) } ..{ E ( ( R G U U U U ` c @ N R ) ~ Y R R K Q ",
"u i a u 9 8 9 2 f 0 X 7 t t q 9 u s i u x z a r r u a a z t O u x c f a h a i h "
};
