/* XPM */
static char *result[] = {
/* columns rows colors chars-per-pixel */
"120 40 102 2 ",
"   c #0A0B0B",
".  c #141616",
"X  c #191C1B",
"o  c #252726",
"O  c #262929",
"+  c #2B2D2D",
"@  c #2F3131",
"#  c #333535",
"$  c #363938",
"%  c #3B3D3D",
"&  c #3E403F",
"*  c #3E4140",
"=  c #424444",
"-  c #454847",
";  c #464948",
":  c #4A4D4C",
">  c #4D504F",
",  c #4E5251",
"<  c #525555",
"1  c #545954",
"2  c #575B5A",
"3  c #5B5E5D",
"4  c #5A605F",
"5  c #666E5C",
"6  c #5E6161",
"7  c #626565",
"8  c #646866",
"9  c #656768",
"0  c #666B6A",
"q  c #6A6D6D",
"w  c #6A7263",
"e  c #6C706F",
"r  c #73796B",
"t  c #6D7271",
"y  c #727575",
"u  c #757976",
"i  c #787C77",
"p  c #757979",
"a  c #7B7C7C",
"s  c #7A8274",
"d  c #82877D",
"f  c #818C79",
"g  c #7E8181",
"h  c #838484",
"j  c #868D82",
"k  c #868788",
"l  c #868989",
"z  c #8A8B8B",
"x  c #8D9884",
"c  c #8D928D",
"v  c #919A85",
"b  c #8E9191",
"n  c #939595",
"m  c #959999",
"M  c #9A9B9B",
"N  c #9BA491",
"B  c #9EA29E",
"V  c #A3AB9E",
"C  c #9B9FA0",
"Z  c #9DA2A1",
"A  c #A3A4A4",
"S  c #A5AAA7",
"D  c #A8AEA3",
"F  c #A6AAAA",
"G  c #AAACAC",
"H  c #ABB5A3",
"J  c #ABB0AF",
"K  c #B3BBAE",
"L  c #ADB2B2",
"P  c #B2B6B5",
"I  c #B4B9B4",
"U  c #B5BABA",
"Y  c #B9BEBD",
"T  c #B9C1B6",
"R  c #BBC2BD",
"E  c #C0C8BF",
"W  c #BDC2C2",
"Q  c #C1C6C5",
"!  c #C3C8C6",
"~  c #C9CFC3",
"^  c #C5CACA",
"/  c #C9CDCD",
"(  c #CCD1C7",
")  c #CBD0CE",
"_  c #CCCFD0",
"`  c #CDD2D2",
"'  c #D1D6D5",
"]  c #D3D8D7",
"[  c #D5DADA",
"{  c #D9DEDD",
"}  c #DBE0DF",
"|  c #DDE2E1",
" . c #E2E6E5",
".. c #E3E8E7",
"X. c #E4E7E8",
"o. c #E5EAE9",
"O. c #EAEDED",
"+. c #ECF0EF",
"@. c #EEF2F2",
"#. c #F2F5F5",
"$. c #F6F9F9",
"%. c #FDFEFE",
/* pixels */
"x K T I B F G G Z M Z G P G F G L P Q 7 3 G A F A F A A A A M A A A A G S S P u s T T I B S G G V M A A W F F L L W W 0 6 L Z F A A A A A A B B A A G A A A P i d K E K M G G G F C Z J U J J L L W W 6 6 L Z F Z Z Z F Z Z Z Z A A G A G A L i ",
"l | [ ^ I ` ] / ` ` } @.#.o.] W / ' @.z - X. .$.@.O.@. .X.o.] / { %.#.%.%.O.%.G g | } ! I ` ] / _ _ [ #.#.o.W W W ` $.g * o.| $.@.O.#.X.X.X.' ^  .%.$.%.%.+.%.G a  .] ! I ' ' ( W ` | @.@...W W W { $.g * o.o.$.#.@.@.| o.O.[ / | #.#.%.%.+.$.Y ",
"j R S P L ^ W ^ ]  .| [ [ ` W F J P { k * | [ | [ } | ] ] / L U _ X.X. .} _ O.A i W F L J ! Q ! [ | | } { ] W J L U { g * | | | [ } | [ ] ^ P U ` X.X. .} _ O.A i R D P P Q Q Q [ | ..[ [ [ W F J P | g * | | | { { | [ [ ^ L U _ X.X.X.} _ O.G ",
"d I G ^ ^ ^ ` ^ ' O.o.{ ^ / U F U P ] h ;  .| | { }  .| [ / ^ / ' X. . .' P  .G s T F ^ / ^ ) / ] o.o.} W W W W W L ] g : | | | { {  .} { / ^ ^ _ X. . ._ P  .G s Y G ^ ^ ^ _ ^ ] o.O...W W W J W P } g * ..| | { | | | [ ^ ^ / / X. .X.' P | G ",
"i I Y Y Q / [ ` ] W ] W W W ` / ` W | g = [ ` ` _ ` } [ ` ` | | } X.O.X.^ B [ G w R R W W / [ ` ` ` ` ` W W W W ` W | g * { ` ' / _ } [ _ _ } | { X.+.X./ B ] G 9 U Y Y Q _ [ _ ] W [ W W W ` ) W W ..g * [ W [ / ` } [ ` ` | | { O.O.X./ M ' G ",
": B ^ R Q [ ] ' W W L T W ^ o.| | ' @.g % ^ W W ^ ^ _ ^ ^ ` [ o.X. .O. .Q G ^ A * Z W W W [ [ ' / U J P W W o.o.| ] +.g % ^ W W ^ ^ _ / ^ ' [ O.X. .X. .^ G ^ A = A ^ Y Q [ [ ' W L U U W ` | | | [ #.g * W W W ^ ^ _ ^ ^ ` [ O.X. .O.| Q G ( G ",
": A ^ ` / / _ _ W W J P W ] | [ [ W | l % [ ` U Y U J ^ ^ ] ] ` _ { X.[ _ / X.A * Z / ` _ / ` _ U U L P W [ | [ [ W | l * | ` U Y P L Q / ' ' _ ` [  .{ _ ^ X.A & A / _ ^ / _ ( L W L W W { | ] { W | g * { W W Y L J ^ / ] ` ` _ { X.[ _ _ X.G ",
"i ! ^ ) W W [ ` L W W W [ ` ` ' W F ' l *  .o.] W L F U ^ ` W U ' } { ' [ O.$.A t ` W ` W W [ ` U Y Y W | ` W { W J ' l * | | ' Q L G U / _ Y Y ' { } ' ] O.%.A e / ^ ^ Q W { ` L W W W | W ` ' W J ] g * ..@.[ ^ L F U / ` W U ' { { ' [ O.%.G ",
"g ] ` W L T [ ) J F W W W W | W P b L h # ^ O. ./ P G P [ Q Q ' { _ Q Q { } #.P a [ ^ _ U L } ` J F P ^ / W | ` L b P g # W @.o.( P G P ' ^ Q ' [ ' Q Q { | %.G a [ ^ ` I P [ ` L J P W _ W | ` P b P k # ^ O.X.^ P F P ] ^ ^ ` { _ ^ Q [ } #.P ",
"* 8 0 6 4 2 t 5 4 * 4 0 4 6 t 0 > O * :   @ - : & @ + # & & : = = % # # & # : 9 = 9 9 9 4 3 t 6 , , 6 6 2 4 0 4 : O * :   # * : & @ + # & & : & = % # @ & $ : 9 = 8 8 8 4 2 t 6 , , 6 6 3 6 6 6 > o & ;   @ - ; * @ @ # * * : * = % # # % $ > 9 ",
"L J g s g w 5 s g 8 s L C Z Z Z M k k z m M M M M M M n A 7 7 M M M M M M M M M A A k w f w 5 r b 4 y F C F A Z C g l z m m C C M M M M A 9 7 A M M M M n M M B F F z w s w 5 s b 6 s F M Z Z Z M z k z M m M M M M M m A 7 6 A m M M m M M M M ",
"] W W N T H H N ` g 4 W { o.#.@.' G G U ^ [ O.O.O.O.X.X.%.A > $.O.#.O.X.X.X.X.O.' Q Q N T H H N ~ l 6 ` [  .@.O.` J L Y ^ [ @.O.X.O.X.X.$.A > $.O.#.+.X.X.X. .O.] W W N T H H N ) g 0 W } O.@.+._ G G Y Q { +.O.O.O. . .%.A < #.+.#.+. .X.X. .O.",
"W C J W W W ` V W g * W ] | o.] P U U / / ^ / _ _ Q P ^ +.M % { _ ' _ / { { ' / Y B G Y ^ E ( V ~ h * W ]  .o.` L U U _ _ ^ ^ _ ' Q P Q +.M % { ' ' _ / [ } ' / R Z J W W W ( H W c * W ] o.O.] P P U _ / Q ^ ' _ W U Q O.M $ { ' ' / / [ | ' / ",
"W J F W ] T ..T ] g 2 ] | @.o.W W Q Q | } [ W U _ P P _ $.M & { Q Y Q / _ | X.{ Q G G Q ] T } T ( k 2 ] | O. .^ W Q ^ } } [ W P _ P P _ #.M & { Q P ^ / ` |  .{ W J F W [ R } T ) g 2 [ | @.| W W ^ ^ } } { Y Y ( U U _ $.B & [ Q Y ^ / ` | | | ",
"W W T W [ R ` W | b t o.} @.W W Q U L _  .` A A Y ' ^ W O.M $ ^ A G ( ' ' ' Q _ W Q Y Y [ R ' E [ b 0 o.| O.` U Q P L '  ._ F Z W ' Q Q O.A % Q G G ^ _ ' ` ^ / R W U W } R ' R } c 0 | } O.` U Q P J '  ._ A A W ' Q W O.Z % ^ G F ^ ` ` ` W / ",
"] { W W } | | T ) c 0 W } o.{ W Q G A ` [ ^ G Y Y Y P P X.B & ' Q P Q ' ' Q Y Q _ ] _ ^ { |  .I ) z 3 ` | | ' ^ Q J Z ` [ ^ J U Y Y P P X.M & ' Q P Q ' ' Q Y ^ ` ` ` / [ } | T ) x 3 ' | | ` / Q J C _ { ^ G Y Y Y P P X.B & _ W U ^ ` ] ^ W W ",
"W | [ W [ [ ] L ( k $ L { X.o._ Q L M P [ ' ' / X.U L / $.Z = { ' / ] ' ] ' ^ / ` } ] ^ ` ] ` L ) h $ L [ O.X./ Q P M U ] ' ] / o.Y L ^ $.Z = ] ' ` [ ' ' ] ^ / ` [ ] ^ ` ] ` P / h $ G { X.X./ W L m U [ ] ] / X.U L ^ $.A = [ ' _ [ _ ' ' / / ",
"` | [ W W W J W E a # B P T K D P E P / X.X.X.X.O.^ Q { %.M & ' [ [  . .| X.[ Q _ [ ` / ) U L U E a # B I T K D I W P / o.X. .X.#.W W { %.C % ' [ [  .| |  .[ Q ` [ ] ^ / P P Y E d # M K E I D U W P / o. . . .O.^ Q { %.C & ' [ {  .} | X.{ Q ",
"| [ W R W W R W { g % V N N v v K Q Y ' @.@.#.O.| A U _ #.G # Y { { [ ' X.#.O.` [ [ W L Q W U ^ [ d & V N N v v K Q Y ' @.@.#.O.| Z W W $.G # Q { } [ ' X.#.O.` ] [ ! L Q R U Q { g % V M N v v I Q Y ' @.@.#.O.| A U / #.G # Y } } [ ' X.#.O._ ",
"t 8 4 * * < 4 4 y % X < 9 9 1 1 9 2 3 q < : < < % @ # $ > 3   $ - : = & : < < , t 8 2 , , , 6 4 y % X < 8 0 1 1 7 2 3 0 < > < > * @ $ # > 2   $ - ; = = ; < < > t 8 2 , : < 6 3 y & X 1 7 5 1 < 7 2 3 0 < > < , % @ # $ > 3   $ - ; - = : < < : ",
"0 g g g g g g g g a a g h h h g g g z = : h h h p a g g y t p g h a i h a l b 6 6 h g h a g g g a i a g h k h a a h z - : l h l g g g g g t g g k g i g g l z 7 7 l h h g g g g a a a g k k h g g h z - > k h l a a g g t t p g h a a h a h z 9 ",
"g +.@.$.#.#.#.o.O.+.[ _ X.%.%.%.%.#.%.k 0 #.o.| ^ [ | ` ` ] ] @.%.@.{ / ] | $.L p @.O.%.#.#.#.o.O.+.[ ' O.%.%.%.%.@.%.k 0 @.X.| W { | ` W ` ` @.%.+.{ / '  .#.P y O.O.$.#.#.#.X.O.+.[ ' O.%.%.%.%.#.%.k 0 @.X.} W { | ' ] ] ] #.%.#.{ / ' X.#.Q ",
"6 | [ | [ | } ] [ ! L U ' X. . .} _ #.g 2 ^ L P P W ^ W ` | | { | ` Q F F W ] F 6 { ] | [ } } ' ] ^ G Y ' X.X. .} _ #.g 2 / G P W W W W ] | | [ [ ] Q F F Y ] F 7 | [ | [ { } ' ] ! L U _ X. . .} ` #.a 2 ^ L P P W W W ` { } [ [ ] Q A G Y _ P ",
"p o.} | } | | } [ ! Q / ' X. . ._ Y +.h 3 ^ G Q ` W ` W ' o.O.| / / W L U U [ F t O.| | } | | | [ ^ Q ^ '  . . ._ Y +.g 3 ^ F ^ W W ] W ] o.O.| / ^ W L P Y [ F t o.| | { |  .} { ! Q ! ' X. . ._ Y +.h 3 ^ F Q ` W ] W ] o.O.} / ^ W P P Y ' U ",
"0 | ` [ _ ` | [ ' ` | | { O.O.X.Q A X.h < W Y Y ^ ^ [ _ / ' ] ` W W W ` ] W | F 8 | ' ] / ` | [ ' _ } { { O.O.X.Q A O.h < Q Y Y W W | W ] [ ] ` W W ` / ` W | G 7 | ` [ ` ` | [ _ ` } { { O.O.X.W A X.h < W Y W Q ^ ] _ W { ] ` W W ` _ ` W { U ",
"6 ` W W ^ ^ / ^ ^ ` | o.X.X.+.} Q A ] d # Z Q Y Y [ { ' _ W P U W ^ | o.o.] | J 6 / W Q Q ^ / / / _ } +.X.X.O.} W A ] h @ B Q Y W [ { ] W W L U W W | o.o.' X.G 4 ` Q W ^ Q / / ^ ' } O.X. .+.} Q A ' h # M Q Y W ' [ ] ) W P W U ^ | o.o.] | W ",
"6 | W W Y P P W ^ ] ' [ ' }  .[ ( Q X.h o m ^ _ / / _ _ Y U L L W ` | o.| W | F 7 { Q P W P P W / ' ' [ ' } X.[ ( Q X.h o n ^ _ W ] [ W W U J J W ] O.o.| ^ [ F 6 [ ^ P W U L W ^ ' ' { ' }  .[ ( Q X.h o M ^ _ ^ _ ` _ W P L L W ` | O.| / [ U ",
"t o.| W W F F W ] [ W W ` { { ' '  .%.h : W ^ _ Q Y ' ' U U Y U ` [ o.| W L _ Z 9 X.| / Y G F W ' ' ^ Q _ { } ' [ X.%.a : Q ^ _ W W [ ` W W W U ` [ | { W L ^ A 9 o.| / Y F G W ' [ ^ Y _ | } ' ] X.%.a : Q ^ _ W W ] ` U P W U ` { | | W L W P ",
"6 | $.| / W P ` | o.[ [  .[ ` ` X.O.$.k 6 } _ [ W U | } Y L U ^ ] [ | { W Z P Z 3 | $. ./ Y P ` X. .[ {  .] _ _ X.O.%.k 7 | _ [ W W } } W J W W [ ] | { W A P F 6 | $. ./ U U _ X. .[ { X.[ ' _ X.O.%.h 6 } / ] W U | | W J U ^ [ [ | } W Z L U ",
"X * 6 2 , * % ; , 6 3 < 2 : & = < : y 3 # y y e 0 4 p t 2 2 0 e t t g p 6 * * 6 . - 6 2 > % % ; > 3 3 < 2 : & = < ; y 3 @ y y e 0 6 p t 2 2 0 t t t g t 6 # % 7 . = 6 2 , * % - < 3 3 < 2 : & = < : y 3 # y y y 0 6 p t 2 2 0 t t t g t 4 * * 6 ",
"g p g g p a a p g = 3 h a a a a a a a z n z z h l z b b b 7 4 n g g z g g y p p u a g g a a a u g = 3 h a a a a a a g k n z z h g b b b b 6 6 n g g g g h y t p i a a g a i p p h & 3 h a a a a a a a z b z z k z l b b b 6 6 b g g n g g t t p ",
"` o.$.#.#.#.+.O.%.l u %.#.%.#.O.O.+.O.#.| / ' _ [ o.@.| @.J 4 _ | @.@.@.| U J W _ X.$.#.#.#.+.+.%.k y %.#.%.#.O.+.O.+.#.| _ _ ` { | @.| @.J 6 [ | o.$.$.{ U L Y / o.$.#.#.#.@.@.%.h y %.#.$.#.O.O.+.O.#. ./ _ _ [ o.@.| +.J 6 ` } o.$.@.{ W J U ",
"W Q / ' _ Q Y / $.a : X._ [ _ ^ { { ] W W C F W / { { / ] C $ L ` | O.} U L P W W ^ ^ ` ' W Y ^ $.a :  .' [ _ ^ { [ _ _ W B G W W | | W | Z % L ` | o.| U L L W ^ W / ' ` W Y ^ $.a :  ._ [ _ ^ [ } ] W W Z F W / { | _ ] C $ L ` | o.{ P L P W ",
"{ ' W Q / P P _ %.a <  .^ Y _ _ ] | o.{ W J F W ` { X. .X.M = ^ | O.@.W W W W { } ] W W ^ P U ` %.a <  .Q W ^ _ '  .X.[ Q G A W ] { o.| o.Z * W | o.o.^ W ^ W { | ] W W / P U _ %.g <  .Q Y / / ] | o.} W L Z W ` {  . .X.M = ^ } O.o./ W ^ ^ [ ",
"} ] G P ` / / _ %.a ; ^ A G W _ ] ` W ] W W U W ` | X.| O.S < } | O.{ W W W P ` | ] J P ` _ ^ _ %.a - ^ A G Q _ ' _ _ _ Y W U U ` { | | O.Z 2 | | @.{ Y W Y L ' | ' J P ` ^ ^ ` %.a - ^ G G Q _ ] ` W ] W W W U ` | o.{ O.A < } | O.[ U W Y L _ ",
"] / Y Y } } _ Q $.h > ' A G _ [ ] W W W ] W ] W [ | X.' { A , ` | | ` W W U Z W [ ^ Y W } } ` Q $.h > _ A G / [ ' Q I Q / ' _ ^ { | o.] | Z , ' | | ] W W P Z W [ / U W } } ] W $.g > ` A G / [ ] W W W W ] ] W ] | X.' | A > ` }  .] ^ W P Z ^ ",
"' ` ` ` X.} / W %.g < | W / { { ] ` W ` ` { [ W ` ] ` _ [ M # F [ o.| ] W L m U ] ' ` ` | | / W %.g <  .W / [ { ' ` ^ / / [ ] / ] [ ` / [ Z # Z [ | | ' ! P C U ' ` ` /  .| ^ Q %.g <  .W / { [ ] ` W ` ` { ] W ` ] ` / [ Z # F [ X. .' ^ L M U ",
" . .}  .X.{ / [ %.a < [ Y ] | { | | ' W W [ ] _ / ^ U W ] M + b W o.o.` W W P W | | | | o.{ / [ %.g > [ Y '  .} | | ] W ^ ] ] _ ` W U W ] C + b W O.X.^ U Y P W  . .|  .X.| ^ ] %.g > [ Y '  .| | | ] W W [ ] ` _ ^ U W ] M + b W o. ./ P W L Q ",
"#.#.#.O. .} ' ' %.h = _ ' [ { { +.#.o.^ [ [ W L W W U W { M @ C W | ] W ` W W / #.#.#.O.X.| ] ' %.h = ` ' [ } [ O.@.o._ ] [ ^ L W W W W { m @ Z ^ { ` ^ ^ ^ Y _ #.#.#.O. .} ' ' %.h & ` ' [ | [ +.#.| ` ] { W P W W U W [ M @ C ^ { ' ^ ^ ^ Y / ",
"p a h i 9 9 9 < z q X 7 y y q 0 p g g p m n g t p s g g n y O y n C g g b g g g a a h p 9 7 6 2 k q X 7 y y q q p h a p n b g e t p g g n y O p m m l g z g a z a a h p 9 7 9 2 z q X 7 y y 0 9 p g g p m n g t t g g g n y O y n n l a z g a z "
};
