/* XPM */
static char *result[] = {
/* columns rows colors chars-per-pixel */
"40 40 111 2 ",
"   c #1D3330",
".  c #242724",
"X  c #252926",
"o  c #292A26",
"O  c #262C2A",
"+  c #2B2E2B",
"@  c #322B27",
"#  c #332D2A",
"$  c #3D2E2B",
"%  c #21312E",
"&  c #2E312E",
"*  c #373226",
"=  c #3A3124",
"-  c #31322F",
";  c #3B352C",
":  c #233633",
">  c #2D3431",
",  c #2C3835",
"<  c #333431",
"1  c #3B3532",
"2  c #363835",
"3  c #3C3934",
"4  c #753C04",
"5  c #7D3D01",
"6  c #753D09",
"7  c #7A3F08",
"8  c #442725",
"9  c #4E2220",
"0  c #4A2926",
"q  c #442C2A",
"w  c #492D2B",
"e  c #502624",
"r  c #592422",
"t  c #532A27",
"y  c #542B29",
"u  c #41372A",
"i  c #4A322F",
"p  c #433A2D",
"a  c #443533",
"s  c #4C3533",
"d  c #433C35",
"f  c #4D3E3B",
"g  c #543532",
"h  c #513936",
"j  c #712D2B",
"k  c #633C3A",
"l  c #6C3C3A",
"z  c #7C3634",
"x  c #773937",
"c  c #774200",
"v  c #7B4001",
"b  c #76400D",
"n  c #7C420B",
"m  c #774413",
"M  c #7C4613",
"N  c #7E4815",
"B  c #7C4A1B",
"V  c #4B4236",
"C  c #474139",
"Z  c #4B423A",
"A  c #51433D",
"S  c #50483D",
"D  c #9F2E00",
"F  c #8E3700",
"G  c #823D00",
"H  c #933400",
"J  c #933A05",
"K  c #D80505",
"L  c #DB0D0C",
"P  c #CD1409",
"I  c #C71312",
"U  c #CD1110",
"Y  c #DE1313",
"T  c #DA1910",
"R  c #DA1E1E",
"E  c #E70707",
"W  c #EC0601",
"Q  c #E60B00",
"!  c #EA0900",
"~  c #E20A0A",
"^  c #ED0D0D",
"/  c #F50403",
"(  c #FD0101",
")  c #F00C05",
"_  c #FF0608",
"`  c #F60A0A",
"'  c #FC0B0B",
"]  c #EB110C",
"[  c #F0100F",
"{  c #E41211",
"}  c #EC1111",
"|  c #ED1A19",
" . c #FD1515",
".. c #FD1B1B",
"X. c #FD2424",
"o. c #FD2A2A",
"O. c #FD3636",
"+. c #FD3C3C",
"@. c #844306",
"#. c #82440B",
"$. c #824711",
"%. c #844A14",
"&. c #834C1A",
"*. c #FEB5B5",
"=. c #FCBCBC",
"-. c #FDCBCB",
";. c #FDD2D2",
":. c #FEDBDB",
">. c #FDE2E2",
",. c #FDEAEA",
"<. c #FEFDFD",
/* pixels */
"< 2 < < < < < < < < < < < + 2 < 2 + - < < + + 2 2 2 & 2 2 2 < + < < < + - < < < ",
"& < < - + & & & + < 2 < < + < < < X + < > + o 1 < < o < < & & + - - - + < 3 < < ",
"& < & - + + + + o < 2 < < + < - < o + + + o X 2 < < + & < < + d N n n n n B 2 < ",
"- - - & + < 2 < & < < < & o < > - o + 2 2 + o 2 < < + > & < O C #.G 5 G G #.2 < ",
"+ & + + + 2 2 < - < & + > o & + + X < < 2 - + < < < # - - - + Z #.G G G G $.< < ",
"+ - & + + < < < < < < < + o - + + X < < 2 + o < & ; n b 7 7 7 7 5 5 5 5 G n < & ",
"- 2 2 < + < < < < + # < + + 2 < 2 + < < < + X < & p G G G G G G G @.G G G n - - ",
"& < 2 < + - < - > + + + + + 2 < < o & < < # o # + p v 5 5 5 G G 5 4 5 5 5 M - + ",
"< < < < - < & < + < < < & + < < < o & V n 4 5 4 4 &.; - u 5 G n ; - ; o ; ; < - ",
"- < < & + & < + + < 2 < < + < < < o O V G G G G G %.< & ; 5 G n < > + X > < 2 < ",
"+ < & - + & & # o < < < > + < > < - - S #.5 G n 5 &.- & ; 5 G n # + o X < 2 < < ",
"+ & < & + 2 < < - < < < # + < < ; $.%.B d ; - d 3 d + & ; 5 G n 2 < < + < < & < ",
"+ - + + + < < , & > > > + o + + = 5 G 4 2 + o < > > X + * 5 G n 1 < < + & < & < ",
"+ < > + + 3 3 1 1 1 1 1 1 # < < u @.#.m < - o 2 < < # < u n @.M 2 < < + + < & - ",
"< 2 < < w { [ [ [ [ [ } [ T $.#.B d V C < + o < + d M #.N Z V d < < < + + < - - ",
"+ 2 < > q / ( ( ( ( ( ( ( W 5 5 6 X O & < + X & + ; 5 5 4 < > X < & - o + - & + ",
"> < ; < q / ( ( ( ( ( ( ( Q G G 6 @ # ; < o o 1 < p #.#.b - - + < + < o > < < < ",
"+ s L E E ( ( ( ( ( ! H F D ! W W L E I < X ; M 4 B V S V < - + < < + o < 2 < < ",
"+ s _ ( ( ( ( ( ( ( W v c H ( ( ( ( ( ~ - X u @.G &.& O & & + o + + + X < < < < ",
"% s / ( ( ( ( ( ( ( ! G 5 H ( ( ( / ( L d 1 p #.G &.1 # 1 1 1 + 2 < < + - < < < ",
"+ i / ( ( ( ( W H F D ! ! ! ( ( ~ 9 w z | } P G 5 J L K ~ | } U 1 < 2 o & < - < ",
"O s / ( ( ( ( / 5 c F ( ( ( ( ( K .   k ( ( W G v H ( ( ( ( ( ` 1 > < o + < & < ",
"& h / ( ( _ _ ) G 5 H / ( ( / ( L ; > l _ ( ! G v H ( ( ( ( ( ^ a 2 1 + - < - & ",
"& h ` (  .-.:.=.] ! ! ( ( ^ k g j { { } ( ( Q G v H / ( ( ( ( ( { ^ R # + + & + ",
"& s / ( ..<.<.,._ ( ( ( ( { 2 : w ( ( ( ( ( Q G v H ( ( ( ( ( ( ( ( ` @ < < < - ",
"> s / ( ..,.<.:.' / _ ( ( { 1 > t ( ( ( ( ( ! G 5 H ( ( ( ( ( ( ( ( { # > 2 < < ",
"% s / ( ( X...O.-.>.=._ ( { 1 % t ( ( ( ( ( ( Q ! W ( ( ( ( ( ( ( ( [ # & 2 < < ",
"+ s _ ( ( ( (  .<.<.>._ ( { < > t ( ( ( ( ( ( ( ( ( ( ( ( ( ( ( ( ( [ # & < < < ",
"X a / / / ( ( ..,.<.;._ ( { ; % 9 ( ( ( _ _ _ ( ( ( ( ( ( ( ( ( ( ( [ $ + < - > ",
"+ # 0 8 r / ( ( X.X.X.( ( { # O e / ( X.;.>.*._ ( ( ( ( ( ( ( ( ( ( } # & < + < ",
"< 2 < , $ / ( ( ( ( ( ( ( { 3 , y / ( o.<.<.:./ ( ( ( ( ( ( ( ( ( ( [ - & < - - ",
"> < < > q W ( / / / / / ( Y 3 , y _ ( o.,.<.-.' _ _ ( ( ( ( ( ( ( ( [ # X + + + ",
"< < < < # w w 0 q w w w w q < , y / ( _ .. .+.:.,.=._ ( ( ( ( ( ( ( ^ # + < < < ",
"+ < < > + > > : + , < , , O < > y ( ( ( ( ( X.<.<.:._ ( ( ( ( ( ( ( [ @ > 2 < < ",
"+ < # > + + + + o < < < < o < > y / / / ( ( o.,.<.-./ ( ( ( ( ( / _ { @ > < < < ",
"+ < < + + < < < < < < < - + < & # q a x _ ( (  . . .( ( ( ( ( ^ h s s # - < - < ",
"+ + + + + 2 < < + < < < + + + + + . O k ( ( ( ( ( ( ( ( ( ( ( ^ < > < + > < < < ",
"+ + + + + < < < < < + & & o + + + X : k ' ` ` ` ` ` ` ` ` ` _ { 1 < < o + < & < ",
"< 2 < < - < < < + < + < + + 2 2 2 + # 2 A f a f f f d f A A f d < < < + + - & & ",
"< 2 2 < - < < < < & < - + + 2 2 2 + > < , O . & + & X > < < > + 2 < < + - < - & "
};
