/* XPM */
static char *result[] = {
/* columns rows colors chars-per-pixel */
"40 40 133 2 ",
"   c #151312",
".  c #1B1413",
"X  c #151B17",
"o  c #1A1917",
"O  c #171D18",
"+  c #1B1D1A",
"@  c #221714",
"#  c #251914",
"$  c #281D17",
"%  c #221E1C",
"&  c #2A1D19",
"*  c #341E16",
"=  c #301E19",
"-  c #1D221D",
";  c #20211D",
":  c #2E211C",
">  c #35231C",
",  c #3A251E",
"<  c #1F2420",
"1  c #232622",
"2  c #2E2721",
"3  c #262926",
"4  c #292A27",
"5  c #272E29",
"6  c #2C2D2B",
"7  c #392721",
"8  c #352924",
"9  c #3F2D24",
"0  c #3A2E28",
"q  c #243027",
"w  c #253128",
"e  c #2E312D",
"r  c #30322F",
"t  c #2D3330",
"y  c #2E3B31",
"u  c #333532",
"i  c #353935",
"p  c #383A37",
"a  c #363E38",
"s  c #3B3C3A",
"d  c #41241B",
"f  c #4C2A1F",
"g  c #482C22",
"h  c #552D22",
"j  c #49342A",
"k  c #543326",
"l  c #5D3225",
"z  c #54362A",
"x  c #543B2E",
"c  c #5C3929",
"v  c #613427",
"b  c #643629",
"n  c #693D2F",
"m  c #354237",
"M  c #364239",
"N  c #3C443D",
"B  c #3C4A3F",
"V  c #65402E",
"C  c #6D412E",
"Z  c #72462F",
"A  c #634130",
"S  c #6C4533",
"D  c #6D4936",
"F  c #684938",
"G  c #734632",
"H  c #754934",
"J  c #7C4D35",
"K  c #744D39",
"L  c #7B4E38",
"P  c #76513D",
"I  c #7D523C",
"U  c #3E4240",
"Y  c #3D4941",
"T  c #434542",
"R  c #434B44",
"E  c #494B47",
"W  c #474E48",
"Q  c #494C49",
"!  c #504F4F",
"~  c #425045",
"^  c #455248",
"/  c #4D564E",
"(  c #4A584C",
")  c #525353",
"_  c #525B54",
"`  c #575C58",
"'  c #5B5D5D",
"]  c #7C5440",
"[  c #546257",
"{  c #566058",
"}  c #5C625C",
"|  c #5E695D",
" . c #5E6460",
".. c #5C6A61",
"X. c #636565",
"o. c #626B65",
"O. c #666769",
"+. c #676C68",
"@. c #6A6C6B",
"#. c #6D716E",
"$. c #6E7870",
"%. c #737574",
"&. c #757B77",
"*. c #79787A",
"=. c #855437",
"-. c #83553B",
";. c #895739",
":. c #8B5B3D",
">. c #815742",
",. c #855A44",
"<. c #8B5E44",
"1. c #875F49",
"2. c #885F48",
"3. c #905F41",
"4. c #8C6146",
"5. c #8C624A",
"6. c #946445",
"7. c #996746",
"8. c #986847",
"9. c #92664B",
"0. c #94684C",
"q. c #9B6C4D",
"w. c #966B51",
"e. c #9D6F50",
"r. c #A1704F",
"t. c #A37352",
"y. c #7A817C",
"u. c #858387",
"i. c #898C8A",
"p. c #8F9194",
"a. c #959598",
"s. c #999B9A",
"d. c #A1A2A3",
/* pixels */
"u r 6 6 e r r r r u 6 6 r r u r e 5 - - - - 5 r r u 6 6 r e r u u u 6 6 r r r u ",
"i i e e e r u u u i e 6 u r 4 - ; e e e a e 3 - 5 u u e u r u u u u r 6 u r u p ",
"i i 6 6 r r u u u i e e 1 ; w i R T B E U a p M w ; 1 e r r u u u s 6 r r r u u ",
"i u 6 6 e e u r u u 5 1 5 e R Y / N w y 1 y T T T p w 1 6 r u r u u 6 6 r r r u ",
"r r 6 6 e 6 e r r r 1 3 y N Q e + 2 * * > > + 1 R W M w 1 e e e r r 6 r 6 6 6 r ",
"u u p u u e e r u 3 4 Q E e - > g h b v v l h , % w T ) u 1 u e u u u u u 6 r u ",
"u u u p u 6 r r 5 q M { R o f v b G n H n S n b h $ N } N w 1 u u u u u u r r u ",
"u u u u u 6 r 4 - m i M : l n G >.q.-.w.;.>.3.G S v > M i a 5 1 u u u u u 6 r u ",
"r r r r e 4 e 1 5 T i % h b <.<.,.q.L 9.;.] 6.=.<.=.l & 6 T T + 6 r r r 6 6 r r ",
"r r r r u u u ; y T u d =.H 4.;.,.8.>.9.;.] 0.J 2.:.L h 3 +._ + 4 u r u u u u u ",
"r r r r u u i 1 e i + K 6.G 2.=.,.6.,.4.<.>.8.L 2.3.<.,.$ Y T - 6 r u u u u u u ",
"r r r r u u i < N Q + ] 6.L 3.;.1.6.>.9.:.>.q.-.,.-.1.,.@ O.#.- 6 r r u u u u u ",
"e 6 r r r r u 1 M R + ] 6.L 4.:.,.6.>.9.=.>.4.z F x x 7 o X.[ + 4 6 6 r r u u r ",
"6 6 4 6 6 6 e + y a + ] 6.G 4.:.>.q.I 0.:.,.P . & & #     N a X 4 6 6 4 6 6 6 6 ",
"s p 6 6 r r p 1 U ' % ] 8.L 2.:.>.e.I 0.<.I 6.K F k k g   X. .X u s r r u u u p ",
"u p 6 6 r r u % M _ ; ] 6.L 2.:.>.e.L 0.;.I 6.-.2.<.<.,.$ .._ O u u 6 6 r r u u ",
"i p 6 6 u u u < e N + ] 6.H 4.:.,.e.I 9.:.>.6.-.2.3.2.<.$ u i - u u r 6 u u u p ",
"6 e 1 1 1 4 5 1 W ) + I 7.H 4.:.,.6.L 9.<.>.3.J 2.;.,.,.@ ) ` O 4 6 1 4 4 4 4 6 ",
"r r u 6 u 4 6 + Y } 1 ] 8.H <.:.1.6.L 0.<.>.6.H 4.3.,.<.; _ ` O r r r u r 6 r r ",
"u u u i u 6 u < M N + ] 8.H 4.:.1.6.I 9.:.>.6.J 4.3.,.,.$ a a O r u u i u 6 r u ",
"u u u u u 6 i < ..u.s ] r.H 4.:.>.0.-.0.=.] 9.-.2.3.,.<.# X.O.+ r u u u u 6 r u ",
"r r 6 r 6 4 6 + / i.s ] ,.C 4.P ,.q.L 9.=.] 6.-.4.:.,.<.$ | | - 4 r r r r 4 6 r ",
"6 4 4 6 5 4 5 + M T + ] 8 # : @ ] q.-.9.<.] 3.-.<.3.5.,.$ Y N o 1 6 6 6 6 3 6 6 ",
"u u u u u i s 1 _ *.4 ] D k V v 1.6.L 9.:.>.8.-.<.<.5.,.# ) +.O 6 u u u u i i p ",
"r e r u u u u 1 / @.- ] 7.H 9.;.,.7.L 9.;.I 8.I 4.3.,.,.& } | O 6 r r r u u u u ",
"u r r u u u i ; ^ y.r P 6.G 4.-.,.6.L 9.;.] 6.I 4.<.,.<.$ W ~ O 6 r r u u u i u ",
"4 6 4 6 e 5 e +  .a./ P q.H 4.:.,.8.I 9.4.I 6.J <.;.,.,.@ ) ' O 3 6 4 6 6 6 6 r ",
"u u 6 6 r u u + ) %.1 I q.J 4.:.,.e.I 0.4.I 6.J 2.:.<.,.# ` +.- r u 6 6 u r u u ",
"p i 6 e u u i + M [ ; I 6.G 4.;.,.0.I 0.3.I 6.J 4.:.,.,.$ _ ( O u p r r r u u p ",
"i i 6 6 r r u ; M Y + ] 6.H 4.;.,.e.J w.4.I 6.J 4.:.<.4.$ M Y - r i 6 6 u r r i ",
"u u 4 6 e e u - ` i.s P q.H 4.=.5.e.J 5.<.] q.L ,.K ] D . X.%.+ r u 6 4 6 r r u ",
"6 6 6 6 6 3 6 + E &.a I q.G 4.-.,.q.I 5.:.,.I : j 9 > .   _ +.- 4 6 6 6 4 4 6 6 ",
"i u i i u 6 u - U ..t ] q.G 5.:.>.q.I 9.:.>.I 7 , : = @ X ( B + e u i i u 6 r u ",
"u u u u u 6 u +  .s.! K q.G 2.:.1.q.I 9.:.>.q.-.>.C S S o &.#.X e u u u u 6 r u ",
"u r u i u 6 t + Y &.T ] q.H <.4.1.q.-.5.:.>.6.I 9.:.<.<.: ..o.- e u u i u 6 r u ",
"6 6 6 6 6 3 6 X ^ $.t K r.H <.<.1.6.I 5.;.] 6.L 9.:.>.,.: o.} + 4 6 4 6 6 1 4 6 ",
"r r r r u u p o X.d.) K t.J 9.;.2.8.-.w.;.>.6.J 9.6.2.<.0 p.&.O 4 e 6 u r u u u ",
"r r r u u u p % / i.R k -.k H Z A -.n ] J c I b S J S n 6 *.+.1 4 u u u u u u p ",
"r r r r u u u r - 1 + o % + + % o + + o % + % o X % + + o ; 1 5 e e u e u u i u ",
"r r r r u u u u 6 u u i u i i u e u u u u i i i u t u u i u i u 6 u u u u u u u "
};
