/* XPM */
static char *_645725500681[] = {
/* columns rows colors chars-per-pixel */
"40 40 123 2 ",
"   c #371314",
".  c #351A1A",
"X  c #2A211F",
"o  c #262623",
"O  c #2C2624",
"+  c #262926",
"@  c #2A2927",
"#  c #272C29",
"$  c #2C2E2B",
"%  c #312524",
"&  c #322826",
"*  c #312E2B",
"=  c #2E312E",
"-  c #31322F",
";  c #2B3632",
":  c #2B3A35",
">  c #2E3E39",
",  c #333532",
"<  c #363935",
"1  c #313E3A",
"2  c #2F403B",
"3  c #31413C",
"4  c #24574E",
"5  c #265F56",
"6  c #1D6257",
"7  c #1F655A",
"8  c #1E685D",
"9  c #24655B",
"0  c #29655B",
"q  c #216A5F",
"w  c #236D62",
"e  c #1D8475",
"r  c #1B8878",
"t  c #2220C5",
"y  c #2539D1",
"u  c #1515FE",
"i  c #1B15FF",
"p  c #1B1CFE",
"a  c #2816FF",
"s  c #271DFF",
"d  c #1734F9",
"f  c #2525FE",
"g  c #2824FF",
"h  c #222BFC",
"j  c #2B2CFE",
"k  c #203AFA",
"l  c #2C3AFB",
"z  c #3139FC",
"x  c #1A5CF2",
"c  c #2241F9",
"v  c #196BF0",
"b  c #6E71C7",
"n  c #4242FE",
"m  c #4B4BFF",
"M  c #5859FE",
"N  c #7373FF",
"B  c #7C7CFF",
"V  c #189583",
"C  c #159986",
"Z  c #189987",
"A  c #169D8A",
"S  c #0FB59F",
"D  c #11B29C",
"F  c #28B29E",
"G  c #0DBEA6",
"H  c #11B6A0",
"J  c #0EC4AC",
"K  c #0CC9AF",
"L  c #11C4AC",
"P  c #0CCCB2",
"I  c #09D6BB",
"U  c #7393F9",
"Y  c #06DFC2",
"T  c #00DCDF",
"R  c #07E1C4",
"E  c #03EDCE",
"W  c #03EFD0",
"Q  c #03E6DF",
"!  c #02F3D4",
"~  c #0EF0DF",
"^  c #00FEDD",
"/  c #0BFEDE",
"(  c #14FEDF",
")  c #1DFFDF",
"_  c #30FADF",
"`  c #00FFE2",
"'  c #00FFEA",
"]  c #00FFF2",
"[  c #22FEE1",
"{  c #2CFEE2",
"}  c #33FEE4",
"|  c #3BFFE4",
" . c #69DFED",
".. c #42FFE5",
"X. c #4CFEE6",
"o. c #51FEE7",
"O. c #55FEE8",
"+. c #6CFFEA",
"@. c #75FEEA",
"#. c #7AFFEC",
"$. c #9BC3BF",
"%. c #8484FE",
"&. c #8688FF",
"*. c #9A9AFE",
"=. c #B4B4FE",
"-. c #97DFF4",
";. c #A6FEF2",
":. c #ABFEF3",
">. c #B1FFF3",
",. c #D4CFC8",
"<. c #E7DDFF",
"1. c #C7FDF7",
"2. c #CAFEF7",
"3. c #C6FFFE",
"4. c #CFFEF8",
"5. c #DBFAF7",
"6. c #DBFEF9",
"7. c #E5EAFE",
"8. c #E5FEFB",
"9. c #EBFFFB",
"0. c #F7F7FE",
"q. c #F4FEFC",
"w. c #FEFEFE",
/* pixels */
", - $ $ = = - - , , $ $ = = - - - , $ $ * * , ; , * $ $ = $ , , , - $ = = = - , ",
"< < $ $ , , , , , < = $ ; , , , , < - ; ; , , , < < , $ , , , , , < = = , - , < ",
"< < $ $ - - , , , < $ = - - , - , , * @ * * - * , , ; , $ , , , , < = = - - , , ",
"< , $ $ - - - ; , , $ $ * - , : 1 3 : : > > 1 > < , $ $ , = = , , , $ $ = - , , ",
"- - $ $ $ $ - - = - $ = = = & Z ^ W ! ! ! ! ! ^ V & = * $ $ , $ = = $ $ = $ = , ",
", , < , , $ = - - , , , - $ % A ' ^ ^ ` ^ ` ` ` Z & , , , $ , , , , , < , $ = , ",
", , , < , $ = , , * 0 P K J J R ^ ^ ^ ^ ^ ^ ^ ^ Y J K K P 5 @ , = , , < , = = , ",
", , , < , $ * ; - . w ' ` ` ` ` ^ ^ ^ ^ ^ ^ ^ ^ ` ' ` ` ` 9 . * , , , , , $ = , ",
"- = = , ; @ $ & w Z H ^ ^ ^ ^ ^ ^ ^ ^ ^ ^ ^ ^ ^ ^ ^ ^ ^ ! D Z 9 @ , = = = $ = = ",
"= - - = , , , . A ] ` ^ ^ ^ ^ ! ^ ^ ^ ^ ^ ^ ^ ^ ^ ^ ^ ^ ^ ^ ] C . $ - , , , , , ",
"= , - , , < 0 9 S ` ! ^ ^ { } { } [ ^ ^ ^ ^ ^ ^ ^ ^ / } { } } F 9 5 = , , , < , ",
"= = = , , , P ` ^ ^ ^ ^ / 4.w.q.w.;.^ ^ ^ ^ ^ ^ ^ ^ } q.0.9.w.@.` K - , , , , , ",
"$ = = = ; - K ` ^ ^ ^ ^ ( 6.w.w.w.:.^ ^ ^ ^ ^ ^ ^ ^ } w.w.w.w.@.` L $ = - , , ; ",
"$ $ @ $ $ @ P ` ^ ^ _ 2.1.q.w.w.w.8.2.:.( ^ ^ ^ +.2.4.w.w.w.w.5.3.$.@ $ $ $ $ = ",
"< < $ = , , K ` ^ ^ X.w.w.w.w.w.w.w.w.9.) ^ ^ ^ @.w.w.w.w.w.w.w.w.,.$ * , , , < ",
"< < $ $ , = P ` ^ ^ ..0.w.w.w.=.B %.%.U ~ ^ ^ ^ @.w.w.w.w.*.B %.&.b = = ; * , < ",
"< < $ $ & & K ` ! ^ ..w.w.w.w.N u p i d Q ^ ^ ^ #.w.w.w.0.n u p p t O O , , , , ",
"$ $ o + 6 7 I ` ^ ^ ..w.w.w.w.B p j g c Q ^ ^ ^ @.w.w.w.0.m s j g y 6 6 # o @ $ ",
"- - * > ! ^ ^ ^ ^ ^ ..w.w.w.w.B p f s k Q ^ ^ ^ #.w.w.w.0.m p h a x ^ ! > @ , - ",
", , , 3 ! ` ^ ^ ^ ^ | 8.8.q.w.%.j z k c Q ^ ^ ^ +.9.8.w.0.M j l j v ^ ! 1 @ , , ",
", , , 3 ! ^ ^ ^ ^ ^ / [ { 6.w.7.<.-.T Q ^ ^ ^ ^ ( ) X.w.w.7.<. .T Q ^ ! 3 @ , , ",
"- = $ : ! ` ^ ^ ^ ^ ^ ^ / 6.w.w.w.>.^ ^ ^ ^ ^ ^ ^ ^ } w.w.0.w.@.^ ^ ^ ! : @ $ = ",
"@ @ @ ; ! ^ ^ ^ ^ ^ ^ ^ ^ X.O.O.O._ ^ ^ ^ ^ ^ ^ ^ ^ ( O.O.o.O.[ ^ ^ ` ! ; @ $ $ ",
", , , 3 ! ` ^ ^ ^ ^ ^ ^ ^ ^ ^ ^ ^ ^ ^ ^ ^ ^ ^ ^ ^ ^ ^ ^ ! ^ ^ ^ ^ ^ ` ! 3 , < < ",
"; - $ > ! ^ ^ ^ ^ ` ^ ^ ^ ^ ^ ^ ^ ` ^ ^ ^ ^ ` ^ ^ ^ ^ ^ ^ ^ ^ ^ ^ ^ ` ! 2 - , , ",
", - , > ! ` ^ ^ ^ ^ ^ ^ ^ ^ ^ ^ ^ ^ ^ ^ ^ ^ ^ ^ ^ ^ ^ ^ ^ ^ ^ ^ ^ ^ ` ! 3 - < , ",
"@ @ @ ; ! ^ ^ ` ^ ^ ^ ^ ^ ^ ` ^ ^ ^ ^ ^ ^ ^ ^ ^ ^ ^ ^ ^ ^ ^ ^ ` ^ ^ ` ! : @ $ - ",
"< , @ : ! ` ^ ^ ^ ^ ` ^ ^ ^ ^ ^ ^ ^ ^ ^ ` ^ ^ ^ ^ ^ ^ ^ ^ ^ ^ ^ ^ ^ ^ ! > * - < ",
"< < $ : ! ` ^ ^ ` ^ ^ ^ ^ ^ ^ ^ ^ ^ ^ ^ ^ ^ ^ ^ ^ ^ ^ ^ ^ ^ ` ^ ^ ^ ` ! 1 - , < ",
"< < @ : ! ` ^ ^ ^ ^ ^ ^ ^ ^ ^ ^ ` ^ ^ ^ ^ ^ ^ ` ^ ^ ^ ^ ^ ^ ^ ^ ^ ^ ^ ! 1 * , , ",
", , @ : ! ^ ^ ^ ^ ^ ^ ^ ^ ` ' ` ^ ^ ^ ^ ^ ^ ^ ^ ` ` ` ^ ^ ^ ^ ^ ^ ^ ^ ! : * ; , ",
"= = @ ; ! ` ^ ^ ^ ^ ^ ^ ! D V P ` ^ ^ ^ ^ ^ ^ ` P V H ^ ^ ^ ^ ^ ^ ^ ` ! ; o $ $ ",
", , , 3 ^ ` ^ ^ ^ ^ ` ` ` 4   A ] ` ^ ^ ^ ^ ^ ' Z . 0 ` ' ^ ^ ^ ^ ^ ' ^ 3 @ , , ",
", , , 3 J P W ^ ^ ` W L P 4 & r P I ^ ^ ^ ^ I P e & 5 P P ! ^ ^ ^ E K J 1 @ , , ",
", , , < , @ P ` ^ ' G - , $ , ; & w ` ` ^ ^ q & , , , - 2 W ` ^ ' L - , ; @ = , ",
"$ @ $ * $ o G ^ E ^ D @ $ + @ @ X 8 ! ! ! ! 6 X $ $ $ & : Y ! ! ^ G @ $ $ + @ $ ",
"- = = = , , 1 1 > > : = ; , , , $ ; 1 1 1 1 , = $ $ $ , , 1 3 1 : : = = , , , , ",
"- - - , , < , - @ * * , , , , , = - * - , - < , ; , , , , , , * & - , , , , , < ",
"- = - - , , , , $ , - - , , < , $ , ; , , , < , $ * , - , , , , = - - = , , < < ",
"= - , , , , , , $ = - , , , , , = * - , , , , , - - ; , , , , , $ - , , , , , , "
};
