/* XPM */
static char *_6cc036a4bf64ea48efa55820bc513eaBOnOpaVO91dV5Zjg[] = {
/* columns rows colors chars-per-pixel */
"40 40 131 2 ",
"   c #371314",
".  c #3A1617",
"X  c #331718",
"o  c #351A1B",
"O  c #2A201F",
"+  c #262522",
"@  c #2C2624",
"#  c #252926",
"$  c #2A2927",
"%  c #272C29",
"&  c #2C2D2B",
"*  c #322725",
"=  c #332926",
"-  c #312E2B",
";  c #2E312E",
":  c #31322F",
">  c #2B3632",
",  c #2B3A35",
"<  c #2E3E39",
"1  c #333532",
"2  c #363935",
"3  c #313E3A",
"4  c #31413C",
"5  c #235D53",
"6  c #295C53",
"7  c #1D6056",
"8  c #1E6459",
"9  c #256157",
"0  c #23645A",
"q  c #2A645A",
"w  c #22695E",
"e  c #236E62",
"r  c #1C8474",
"t  c #1C8979",
"y  c #211EC3",
"u  c #2539D0",
"i  c #0F0FFE",
"p  c #1515FE",
"a  c #1B15FF",
"s  c #1B1CFE",
"d  c #2816FF",
"f  c #271DFF",
"g  c #1734F9",
"h  c #2525FE",
"j  c #2824FF",
"k  c #222BFC",
"l  c #2B2CFE",
"z  c #302FFE",
"x  c #2736FB",
"c  c #3139FC",
"v  c #1D4CF6",
"b  c #1A5CF2",
"n  c #2241F9",
"m  c #196BF0",
"M  c #6C6FC5",
"N  c #4B4BFF",
"B  c #5859FE",
"V  c #7373FF",
"C  c #7C7CFF",
"Z  c #109785",
"A  c #189583",
"S  c #179986",
"D  c #189886",
"F  c #179F8C",
"G  c #199A88",
"H  c #0EB49D",
"J  c #12B49E",
"K  c #27B09D",
"L  c #0CBDA5",
"P  c #0DC5AC",
"I  c #0BC8AF",
"U  c #12C5AE",
"Y  c #0CCCB2",
"T  c #09D7BB",
"R  c #7393F9",
"E  c #06DFC2",
"W  c #00DCDF",
"Q  c #06E1C4",
"!  c #03EDCE",
"~  c #03EFD1",
"^  c #03E6DF",
"/  c #02F3D4",
"(  c #0EF0DF",
")  c #00FEDD",
"_  c #0BFEDE",
"`  c #14FEDF",
"'  c #1DFFDF",
"]  c #31FADF",
"[  c #00FFE2",
"{  c #00FFEA",
"}  c #00FFF2",
"|  c #22FEE1",
" . c #2CFEE2",
".. c #33FEE4",
"X. c #3BFFE4",
"o. c #69DFED",
"O. c #42FFE5",
"+. c #4CFEE6",
"@. c #51FEE7",
"#. c #55FEE8",
"$. c #5FFFE8",
"%. c #6CFFEA",
"&. c #75FEEB",
"*. c #7AFFEC",
"=. c #9BC3BF",
"-. c #8484FE",
";. c #8689FF",
":. c #9A9AFE",
">. c #B4B4FE",
",. c #97DFF4",
"<. c #ABFEF3",
"1. c #B1FFF3",
"2. c #D2CDC6",
"3. c #E8DDFF",
"4. c #DFE4FE",
"5. c #C7FDF7",
"6. c #CAFEF7",
"7. c #C6FFFE",
"8. c #CFFEF8",
"9. c #DBFAF7",
"0. c #DBFEF9",
"q. c #E5EAFE",
"w. c #E5FEFB",
"e. c #EBFFFB",
"r. c #F7F7FE",
"t. c #F3FEFC",
"y. c #F5FEFC",
"u. c #FBFEFE",
"i. c #FDFDFF",
"p. c #FEFDFE",
"a. c #FFFFFE",
/* pixels */
"1 : & & : ; ; : 1 1 $ & > - - > : 1 & & : & 1 1 : 1 & & ; & 1 1 1 1 $ & > - ; 1 ",
"2 2 & & 1 1 1 1 1 2 ; & 1 1 1 2 1 2 ; 1 > 1 1 1 1 2 1 ; 1 1 1 1 1 2 & : 1 1 1 2 ",
"2 2 & & ; 1 1 1 1 2 & ; ; 1 1 1 1 1 & & - - - - 1 1 > : ; 1 1 1 1 2 & & ; : 1 1 ",
"2 1 & & ; ; ; 1 1 2 & & ; ; ; > 3 4 , > < < 3 < 2 1 & & & ; ; 1 1 2 & & ; 1 1 1 ",
"1 : & & ; & ; : & 1 & & - > @ A ) ~ / / / / / ) D = ; ; ; ; ; ; & 1 & & 1 & & 1 ",
"1 1 1 2 1 & ; : 1 1 1 1 1 & * A { ) ) [ ) [ ) { F - 1 1 1 - : > 1 1 1 2 1 & & 1 ",
"1 1 1 2 1 & ; 1 1 : 9 Y P P L E ) ) ) ) ) ) ) ) Q P P P Y 0 - 1 : 1 1 2 1 & : 1 ",
"1 1 1 2 1 & - > : o q { [ [ [ ) ) ) ) ) ) ) ) ) [ [ [ [ { w X - 1 1 1 1 2 & : 1 ",
"; ; ; : : & ; $ 0 G J ) ) ) ) ) [ ) ) ) ) ) ) ) ) ) ) / ) J S w & 1 & - ; & & > ",
"; : > : 1 1 : o Z } ) ) ) ) ) ) ) ) ) ) ) ) ) ) ) ) ) ) ) ) } F X - > 1 1 1 1 1 ",
": : : 1 1 1 q 0 K ..] ...._ ) ) ) ) ) ) ) ) | ...... .) ) / [ L 0 5 : 1 1 2 2 1 ",
"; : : 1 1 1 Y [ &.a.t.u.y.X.) ) ) ) ) ) ) ) <.a.t.u.8._ ) ) ) ) [ Y : 1 1 1 1 1 ",
"& & ; ; : : U [ &.a.a.a.a...) ) ) ) ) ) ) ) <.u.u.a.0._ ) ) ) ) [ P & > ; 1 1 1 ",
"& & $ & ; $ =.7.9.i.r.a.i.8.6.$.) ) ) ` <.5.e.a.a.a.t.5.5...) ) [ Y & $ & & & ; ",
"2 2 & : 1 : 2.a.i.i.a.a.a.a.a.*.) ) ) ' e.a.a.a.a.i.a.a.a.O.) ) [ Y ; ; 1 1 1 2 ",
"2 2 & & > : M ;.-.-.:.r.a.u.a.&.) ) ) ( R -.-.C >.a.a.a.a.O.) / [ Y ; ; : ; 1 1 ",
"2 2 & & * * y s s p n r.a.a.a.&.) ) ) ^ g s f i V a.r.a.a.O.) ) [ Y * @ : 1 1 1 ",
"& & + # 8 0 u j l d B r.a.u.a.&.) ) ) ^ x j l s C u.a.u.a.O.) ) [ T 7 7 % $ & & ",
"1 & - 3 / ) b d j s N r.a.a.a.*.) ) ) ^ g f h a C a.u.a.a.O.) ) ) ) ) / < $ : : ",
"1 1 1 4 / ) m k c z B r.a.w.e.%.) ) ) ^ v x c l -.a.y.w.w.X.) ) ) ) [ / 3 & : 1 ",
"1 1 1 4 / ) ^ W o.3.4.a.u.+.' ` ) ) ) ) W W ,.3.q.a.0. .| _ ) ) ) ) ) / < & 1 1 ",
"1 & & , / [ ) ) &.a.a.i.a...) ) ) ) ) ) ) ) 1.i.a.i.0._ ) ) ) ) ) ) [ / , $ & ; ",
"$ $ & > / ) ) ) | #.@.@.#.` ) ) ) ) ) ) ) ) X.#.@.#.+.) ) ) ) ) ) ) [ / , $ & & ",
"1 1 1 3 ~ ) ) ) ) ) ) ) ) ) ) ) ) ) ) ) ) ) ) ) ) ) ) ) ) ) ) ) ) ) [ / 3 1 2 2 ",
"> : & < / [ ) ) ) ) [ ) ) ) ) ) ) ) ) ) ) ) ) ) ) ) ) ) ) ) ) ) [ ) [ / 4 : 1 1 ",
"1 : 1 < / [ ) ) ) ) ) ) ) ) ) ) ) ) ) [ ) ) ) ) ) ) ) ) ) ) ) ) ) ) ) / 3 : 2 2 ",
"$ $ $ > / ) ) ) ) ) ) ) ) ) [ ) ) [ ) ) [ ) [ ) ) ) ) ) ) ) ) ) ) ) [ / , $ ; ; ",
"2 1 $ , / [ ) ) ) ) [ ) ) ) ) ) ) ) ) ) ) ) ) ) ) ) ) ) ) ) ) [ ) ) ) / < - : 1 ",
"2 2 & , / [ ) ) ) ) ) ) ) ) ) ) ) ) ) ) ) ) ) ) ) ) ) ) ) ) ) [ ) ) [ / < - 1 2 ",
"2 2 & , / [ ) ) ) ) ) ) ) ) ) ) ) ) ) [ ) ) ) ) ) ) ) ) ) ) ) ) ) ) ) / < - 1 2 ",
"1 1 $ > / [ ) ) [ ) ) ) ) [ { [ ) ) ) ) ) ) ) ) ) { [ ) ) ) ) ) ) ) ) / , - 1 1 ",
"; ; $ > / ) ) ) ) ) ) ) / H A Y ) ) ) ) ) ) ) [ Y A J ) ) ) ) ) ) ) [ / , + & & ",
"1 1 1 4 ) { ) ) ) ) ) [ [ 5   A { [ ) ) ) ) [ { F . 6 [ [ [ ) ) ) ) { ) 4 $ 1 1 ",
"1 1 1 4 P Y ! ) ) ) ) Y I 5 * r Y T ) ) ) ) T Y t - 6 Y P ! [ ) ) ! P P 3 $ > 1 ",
"1 1 1 2 1 $ P [ ) [ ! 4 1 & 1 > * e [ [ ) [ e * 1 1 1 1 - L { ) [ I 1 1 1 % 1 1 ",
"& $ & & & + L ) ! / E , $ # # & O 0 / / / / 8 + & & & & $ H ) ~ ) I $ & & + $ $ ",
": : ; : 1 1 3 3 , < < 1 ; 1 1 : & > < 3 3 3 1 1 & & & 1 > 2 4 3 , 2 : : : 1 1 1 ",
": : : 1 1 1 1 : & - - 1 1 2 1 1 ; : - : 1 : 2 1 > 1 1 1 1 1 1 : & - 1 1 1 1 2 1 ",
": ; : : 1 1 2 1 & & > : 1 1 2 1 & 1 > 1 1 1 2 1 & 1 & 1 1 1 1 1 & : > : 1 1 2 2 ",
": : : 1 1 1 1 1 & & - 1 1 1 1 1 ; - : 1 1 1 1 2 1 & 1 1 1 1 1 1 & : : 1 1 1 1 1 "
};
