/* XPM */
static char *_645725514420[] = {
/* columns rows colors chars-per-pixel */
"40 40 127 2 ",
"   c #370D0F",
".  c #3B0E11",
"X  c #351A1A",
"o  c #29211F",
"O  c #262522",
"+  c #2C2624",
"@  c #262926",
"#  c #2B2927",
"$  c #272C29",
"%  c #2C2E2B",
"&  c #332423",
"*  c #332927",
"=  c #322E2B",
"-  c #2E312E",
";  c #31322F",
":  c #2A3632",
">  c #2B3A36",
",  c #2E3D39",
"<  c #333532",
"1  c #353935",
"2  c #303F3A",
"3  c #2F403B",
"4  c #31413C",
"5  c #1E5C52",
"6  c #2D4C46",
"7  c #245F55",
"8  c #1D6257",
"9  c #1F655A",
"0  c #236156",
"q  c #23665B",
"w  c #29655B",
"e  c #23695E",
"r  c #1E7F70",
"t  c #236D62",
"y  c #247065",
"u  c #1C8273",
"i  c #2220C5",
"p  c #2539D1",
"a  c #1515FE",
"s  c #1B15FF",
"d  c #1B1CFE",
"f  c #2816FF",
"g  c #271DFF",
"h  c #1734F9",
"j  c #2525FE",
"k  c #2824FF",
"l  c #222BFC",
"z  c #2B2CFE",
"x  c #203AFA",
"c  c #2C3AFB",
"v  c #3139FC",
"b  c #1A5CF2",
"n  c #2241F9",
"m  c #196BF0",
"M  c #6E71C7",
"N  c #4242FE",
"B  c #4B4BFF",
"V  c #5859FE",
"C  c #7373FF",
"Z  c #7C7CFF",
"A  c #199482",
"S  c #159986",
"D  c #189987",
"F  c #159C89",
"G  c #189E8B",
"H  c #18A18E",
"J  c #12B39D",
"K  c #28B29E",
"L  c #0EB7A0",
"P  c #0EBAA3",
"I  c #10BCA5",
"U  c #0DC5AC",
"Y  c #0CC9AF",
"T  c #11C4AC",
"R  c #0CCBB2",
"E  c #0AD1B6",
"W  c #09D5BA",
"Q  c #7393F9",
"!  c #00DCDF",
"~  c #06E1C4",
"^  c #04ECCD",
"/  c #03E6DF",
"(  c #02F4D4",
")  c #0EF0DF",
"_  c #00FEDD",
"`  c #0BFEDE",
"'  c #14FEDF",
"]  c #1DFFDF",
"[  c #00FFE2",
"{  c #00FFEA",
"}  c #00FFF2",
"|  c #22FEE1",
" . c #2CFEE2",
".. c #33FEE4",
"X. c #3BFFE4",
"o. c #69DFED",
"O. c #42FFE5",
"+. c #4CFEE6",
"@. c #51FEE7",
"#. c #55FEE8",
"$. c #6CFFEA",
"%. c #75FEEA",
"&. c #7AFFEC",
"*. c #9BC3BF",
"=. c #8484FE",
"-. c #9A9AFE",
";. c #B4B4FE",
":. c #97DFF4",
">. c #A6FEF2",
",. c #ABFEF3",
"<. c #B1FFF3",
"1. c #D4CFC8",
"2. c #E7DDFF",
"3. c #DFE4FE",
"4. c #C7FDF7",
"5. c #CAFEF7",
"6. c #C6FFFE",
"7. c #CFFEF8",
"8. c #DBFAF7",
"9. c #D4FEF8",
"0. c #DBFEF9",
"q. c #E5EAFE",
"w. c #E5FEFB",
"e. c #EBFFFB",
"r. c #F7F7FE",
"t. c #F4FEFC",
"y. c #FEFEFE",
/* pixels */
"< ; % % ; ; - ; < < # % : = < = < < % % = - < : = < % % ; % < ; ; < % % - ; ; < ",
"1 1 % % < ; < < < 1 % - < < < < < 1 = : : < < < 1 1 : - < < < < < 1 - - < ; < < ",
"1 1 % % - < < < < 1 % % % < < < < < % % = = = = < 1 - - ; ; < < < 1 - - - < < 1 ",
"1 < % % - ; - < < 1 % % < - % > 2 2 > > , , 2 , < < - % % ; ; < < < % % - ; ; < ",
"; ; % % - % - - : = % % = : + D _ ^ ( ( ( ( ( _ A * - = - - - - - - - % % % - ; ",
"< < 1 1 < % - ; < < < 1 < % & G [ [ [ [ [ _ [ [ D * < < < = = : < < < 1 < - - < ",
"< < < < < % - < < = w R Y U U ~ [ _ _ _ _ _ _ _ ~ U Y Y R 7 = < - < < < < - ; < ",
"< < < 1 < % = : = X t { [ [ [ [ _ _ _ _ _ _ _ _ [ [ [ [ [ q X = < < < < < - - < ",
"; - - ; = # : % t F J _ _ _ ( _ _ _ _ _ _ _ _ _ [ _ _ ( _ J D q % - - ; - % - - ",
"- ; ; ; < < = X F } [ _ _ _ _ _ _ _ _ _ _ _ _ _ _ _ _ _ _ _ } S X = ; ; < < < < ",
"; ; < < < 1 w e L [ ( _ _  ... ...| _ _ _ _ _ _ _ _ ` .. .....K q 7 - < < < 1 < ",
"; ; ; : < < R [ _ _ _ _ ` 9.y.e.y.>._ _ _ _ _ _ _ _ ..t.y.e.y.%.[ R - < < < < < ",
"% % - - < - Y [ _ _ _ _ ' 0.y.y.y.,._ _ _ _ _ _ _ _ ..y.y.y.y.%.[ T % - : < < < ",
"% % # # % % R [ _ _ ..5.4.t.y.y.y.w.5.,.' _ _ _ $.5.7.y.y.y.r.8.6.*.# % % % % % ",
"1 1 % ; < ; Y [ ( _ O.y.y.y.y.y.y.y.y.e.] _ _ _ %.y.y.y.y.y.y.y.y.1.% - < < < 1 ",
"1 1 % % : ; R [ _ _ O.y.y.y.y.;.Z =.=.Q ) _ _ _ %.y.y.y.r.-.=.=.=.M - - < = < < ",
"1 1 % % * & Y [ _ _ O.y.y.y.y.C a d s h / _ _ _ %.y.y.y.r.N a d d i + + < < < 1 ",
"% % O @ 9 9 W [ _ _ O.y.y.y.y.Z d z k n / _ _ _ %.y.y.y.r.B g z z p 8 5 $ $ # % ",
"< - = , ( _ _ _ ( _ O.y.y.y.y.Z d j g x / _ _ _ &.y.y.y.r.B d l f b _ ( , % = - ",
"< < < 4 ( _ _ _ _ _ X.w.w.t.y.=.z v x n / _ _ _ $.e.w.y.r.V z c j m _ ( , % < < ",
"< < < 4 ( [ _ _ _ _ ` |  .0.y.q.2.:.! / _ _ _ _ ' ] +.y.y.3.2.o.! / _ ( 4 % ; < ",
"- - = > ( _ _ _ _ _ _ _ ` 0.y.y.y.<._ _ _ _ _ _ _ _ ..y.y.y.y.%._ _ _ ( > + % ; ",
"# $ # : ( [ _ _ _ _ _ _ _ +.#.@.#.X._ _ _ _ _ _ _ _ ' #.@.@.#.| _ _ [ ( : + % % ",
"< < < 3 ( [ _ _ _ _ _ _ _ _ _ _ _ _ _ _ _ _ _ _ _ _ _ _ ( _ _ _ _ _ [ ( 4 < 1 1 ",
"- : = , ( [ _ _ [ _ _ _ _ _ _ _ _ _ [ _ _ _ _ _ _ _ _ _ _ [ _ _ _ _ _ ( 3 ; < 1 ",
"; < ; , ( [ _ _ _ _ _ _ _ _ _ _ _ _ _ _ [ _ _ _ _ _ _ _ _ _ _ _ _ _ [ ( 4 ; < 1 ",
"# # + : ( _ _ _ _ _ _ [ [ _ _ [ _ _ _ _ _ _ _ [ _ _ _ _ [ _ _ _ _ _ _ ( > % % ; ",
"1 1 # > ( [ _ _ _ _ _ _ _ _ _ _ _ _ _ _ _ _ _ _ _ _ [ _ _ _ _ _ _ _ [ ( > = ; < ",
"1 1 % > ( [ _ _ _ _ _ _ _ _ _ _ _ _ _ _ [ _ _ _ _ _ _ _ _ _ _ _ _ _ [ ( , ; < 1 ",
"1 1 % > ( [ _ _ _ _ ( [ _ [ _ _ [ _ _ _ ( _ _ _ _ _ _ _ _ _ _ _ _ _ [ ( , = < 1 ",
"< < # : ( [ _ _ [ { [ _ _ _ _ _ _ [ [ [ [ { [ _ _ _ _ _ [ [ [ [ _ _ [ ( > % < < ",
"- % # : ( _ _ _ Y A P _ _ _ _ _ [ ~ G H G F ~ [ _ _ _ _ _ L A R _ _ _ ( : O % % ",
"1 < < 4 ( [ [ { A . y { [ _ _ _ { I & = * & I { _ _ _ [ { 9   D } _ [ ( 4 % < < ",
"< < < 4 ( _ E E r & e R R _ _ _ [ U < 1 1 ; U [ _ [ ^ Y R 0 & u E E _ ( , # - < ",
"< < < 2 ( [ 0 * < < < ; 6 ^ _ _ { I < < < % Y { [ [ R < < % < : * q [ ( 3 # < < ",
"% % * : ^ ( 5 o % % % # 6 ~ ( ^ _ L # % % @ P _ ^ _ I % # @ + $ + 7 _ ^ : O @ # ",
"- - - - 4 4 1 ; % % - = : 2 2 2 > > % < < < 1 2 > , , - < < < % # : , 2 < < < < ",
"; < < < ; < < < - - < < < ; < < = = < < < < 1 < % = = < < < < < = ; = ; < < 1 1 ",
"- - ; - < < < < % - ; ; < < < < - : ; < < < < < : ; ; ; < < 1 < % ; < ; < < 1 < ",
"- ; < < < < < < % : ; < < < 1 < - = - < < < < < ; ; < < < < < < - ; ; < < < < < "
};
