/* XPM */
static char *_4b0af35f993476bd8a522a7441e16100Srim0eQ7H61UaXr[] = {
/* columns rows colors chars-per-pixel */
"40 40 138 2 ",
"   c #380A0D",
".  c #3B1012",
"X  c #331718",
"o  c #351A1B",
"O  c #29201F",
"+  c #31201F",
"@  c #262523",
"#  c #2C2624",
"$  c #252A26",
"%  c #2A2927",
"&  c #272C29",
"*  c #2C2E2B",
"=  c #332523",
"-  c #342826",
";  c #312D2B",
":  c #382B2A",
">  c #2E312E",
",  c #31322F",
"<  c #2B3632",
"1  c #2B3A36",
"2  c #2E3E39",
"3  c #333532",
"4  c #353935",
"5  c #303E3A",
"6  c #26463F",
"7  c #31413C",
"8  c #2E4D46",
"9  c #205E54",
"0  c #1D6056",
"q  c #256157",
"w  c #23655A",
"e  c #2A645A",
"r  c #22695E",
"t  c #1F6C60",
"y  c #1D7E70",
"u  c #256B60",
"i  c #1D8374",
"p  c #19907F",
"a  c #211EC3",
"s  c #2539D0",
"d  c #0F0FFE",
"f  c #1515FE",
"g  c #1B15FF",
"h  c #1B1CFE",
"j  c #2816FF",
"k  c #271DFF",
"l  c #1734F9",
"z  c #2525FE",
"x  c #2824FF",
"c  c #222BFC",
"v  c #2B2CFE",
"b  c #302FFE",
"n  c #2736FB",
"m  c #203AFA",
"M  c #3139FC",
"N  c #1D4CF6",
"B  c #1A5CF2",
"V  c #2241F9",
"C  c #196BF0",
"Z  c #6C6FC5",
"A  c #4242FE",
"S  c #4B4BFF",
"D  c #5859FE",
"F  c #7373FF",
"G  c #7C7CFF",
"H  c #109785",
"J  c #199482",
"K  c #179986",
"L  c #169D8A",
"P  c #199C8A",
"I  c #16A08D",
"U  c #12B49E",
"Y  c #27B09D",
"T  c #0DBCA4",
"R  c #10BAA3",
"E  c #0DC4AC",
"W  c #0CC8AF",
"Q  c #12C5AE",
"!  c #0CCCB2",
"~  c #0AD1B7",
"^  c #08D8BC",
"/  c #7393F9",
"(  c #00DCDF",
")  c #06E1C4",
"_  c #04EBCD",
"`  c #03E6DF",
"'  c #02F4D4",
"]  c #0EF0DF",
"[  c #00FEDD",
"{  c #0BFEDE",
"}  c #14FEDF",
"|  c #1DFFDF",
" . c #31FADF",
".. c #00DEE0",
"X. c #05E2E0",
"o. c #00FFE2",
"O. c #00FFEA",
"+. c #00FFF2",
"@. c #22FEE1",
"#. c #2CFEE2",
"$. c #33FEE4",
"%. c #3BFFE4",
"&. c #69DFED",
"*. c #42FFE5",
"=. c #4CFEE6",
"-. c #51FEE7",
";. c #55FEE8",
":. c #6CFFEA",
">. c #75FEEB",
",. c #7AFFEC",
"<. c #9BC3BF",
"1. c #8484FE",
"2. c #8689FF",
"3. c #9A9AFE",
"4. c #B4B4FE",
"5. c #97DFF4",
"6. c #A6FEF2",
"7. c #ABFEF3",
"8. c #B1FFF3",
"9. c #D2CDC6",
"0. c #E8DDFF",
"q. c #C7FDF7",
"w. c #CAFEF7",
"e. c #C6FFFE",
"r. c #CFFEF8",
"t. c #DBFAF7",
"y. c #D4FEF8",
"u. c #DBFEF9",
"i. c #E5EAFE",
"p. c #E5FEFB",
"a. c #EBFFFB",
"s. c #F7F7FE",
"d. c #F3FEFC",
"f. c #F5FEFC",
"g. c #FBFEFE",
"h. c #FDFDFF",
"j. c #FEFDFE",
"k. c #FDFEFE",
/* pixels */
"3 , * * , , , > 3 3 % * < ; ; < , 3 * * ; * 3 3 * 3 * * 3 < ; 3 , 3 * * , > , 3 ",
"4 4 * * 3 , 3 3 3 4 > * 3 3 3 4 3 4 3 , < 4 3 4 4 4 3 * 3 ; 3 4 4 4 * > 3 3 3 4 ",
"4 4 * * > 3 3 3 3 4 * > > > 3 3 3 3 % ; ; ; ; , 3 4 * < 3 * 3 3 3 3 > * > 3 3 4 ",
"4 3 * * > , > 3 3 4 * * > 3 , < 5 5 1 1 5 1 5 1 4 3 * * * 3 3 * 3 4 * * > , > 3 ",
"3 , * * > * > > > , * * ; * # J [ ' ' ' ' ' ' [ K - > * < * ; < > 3 * * > * * > ",
"3 3 3 4 3 * > 3 3 3 3 3 3 * = J O.[ o.[ o.[ o.o.I - 3 4 3 ; ; 3 > 3 3 4 3 * , 3 ",
"3 3 3 4 3 * > , 4 ; q ! E E E ) [ [ [ [ [ [ [ [ ) E E E ! w ; 3 3 3 3 3 4 * 3 3 ",
"3 3 3 3 3 * , < ; o r O.o.o.o.[ [ [ [ [ [ [ [ [ o.o.o.o.O.u X ; 3 3 3 4 3 * ; 3 ",
", > > , , * > % w P U [ [ [ [ [ o.[ [ [ [ [ [ [ [ [ [ [ [ U J r - < < 3 * * * < ",
", , , , 3 3 , o H +.o.' [ [ [ [ [ [ [ [ [ [ [ [ [ [ [ [ [ [ +.L X ; 3 ; 3 3 3 3 ",
"> 3 , 3 3 3 e w Y $. .$.$.{ [ [ [ [ [ [ [ [ @.$.$.$.@.[ [ ' o.R w 9 , 3 3 4 4 3 ",
"> > > 3 3 3 ! o.>.k.f.f.f.$.[ [ [ [ [ [ [ [ 7.j.d.k.y.{ [ [ [ [ o.! , 3 3 3 3 3 ",
"* > > < , , Q o.>.k.h.k.k.%.[ [ [ [ [ [ [ [ 7.h.k.k.u.} [ [ [ [ o.W * < > , 3 , ",
"* * % % * % <.e.t.k.k.k.h.r.q.:.[ [ [ } 7.w.a.h.k.k.f.q.q.$.[ [ o.! % % * * > > ",
"4 4 * , 3 3 9.k.k.k.k.k.k.k.k.,.[ [ [ | a.k.k.k.k.k.k.k.k.=.[ [ o.! > > 3 3 3 4 ",
"4 4 * * 3 > Z 2.1.1.3.k.k.h.k.,.[ [ [ ] / 1.1.1.4.k.h.k.k.*.[ [ o.! > > > > 3 3 ",
"4 4 * * - - a h h d A s.k.k.k.>.[ [ [ ` l g h f F k.k.k.k.*.[ [ o.W = # 3 3 > 4 ",
"* * @ $ 0 q s x v k S s.k.k.k.>.[ [ [ ` m x b h G k.k.k.k.*.[ [ o.^ 0 0 & % * > ",
"3 ; ; 2 ' [ B j z h S s.k.k.k.,.[ [ [ ` m k x f G k.k.k.k.*.[ [ [ [ [ ' 1 % , , ",
"3 3 3 7 ' [ C c n b D k.k.p.a.:.[ [ [ ` N c M v 1.k.f.p.p.*.[ [ [ [ o.' 7 * , 3 ",
"3 3 3 7 ' [ ` ( &.0.i.g.k.-.| } [ [ [ [ X...5.0.i.k.u.#.@.{ [ [ [ [ o.' 7 % 3 3 ",
"3 * * 1 ' [ [ [ ,.k.k.k.k.$.[ [ [ [ [ [ [ [ 8.k.k.k.u.{ [ [ [ [ [ [ o.' 1 % * , ",
"* % % < ' [ [ [ @.;.-.-.;.} [ [ [ [ [ [ [ [ %.;.-.;.=.[ [ [ [ [ [ [ o.' 1 # * * ",
"3 3 3 7 ' [ [ [ [ [ [ [ [ [ [ [ [ [ [ [ [ [ [ [ [ [ [ [ [ [ [ [ [ [ [ ' 7 3 4 4 ",
"> > * 2 ' o.[ [ [ [ [ [ [ o.[ [ o.[ [ [ [ [ o.[ [ [ [ [ [ [ o.[ [ [ o.' 2 , 3 3 ",
"3 < 3 2 ' o.[ [ [ [ [ [ [ [ [ [ [ [ [ [ [ [ [ [ [ [ [ [ [ [ [ [ [ [ o.' 7 , 4 3 ",
"% % # < ' o.[ [ [ [ [ [ [ [ [ o.[ [ [ o.[ [ [ [ [ [ [ [ o.[ [ [ [ [ [ ' 1 % * > ",
"4 4 % 1 ' [ [ [ [ [ [ [ [ [ [ [ [ [ [ [ [ [ [ [ [ [ [ [ [ [ [ [ [ [ o.' 5 ; , 4 ",
"4 4 * 1 ' o.[ [ [ [ [ [ [ [ [ o.[ [ [ [ o.[ [ [ o.[ [ [ [ [ [ [ [ [ o.' 5 , 3 4 ",
"4 4 * 1 ' o.[ [ [ [ [ [ [ [ [ [ [ [ [ [ ' [ [ [ [ [ [ [ [ [ [ [ [ [ [ ' 2 ; 3 4 ",
"3 3 % < ' o.[ [ o.O.o.[ [ [ [ [ [ o.o.O.O.O.[ [ [ [ [ [ [ o.o.o.[ [ [ ' 1 ; < 3 ",
"* * % < ' [ [ [ ! J R [ [ [ [ [ o.) P P P K ) o.[ [ [ [ [ R J W [ [ o.' < @ * * ",
"4 3 3 7 ' [ [ +.J . r o.o.[ [ [ O.T : : - + T O.[ [ [ o.O.t   J O.o.o.' 7 % 3 3 ",
"3 3 3 7 ' o.~ ~ i - w ! ! ' o.' o.E 4 4 1 > T o.[ [ ' ! ! u = y ! ~ o.' 5 % 3 3 ",
"3 3 3 7 ' o.w - 3 3 3 3 3 ! o.[ O.W 3 3 4 * T O.[ [ ' 8 ; * < < : w o.' 2 % 3 3 ",
"; * % < _ ' 0 O * * * * * T ' ' [ T % * * @ R o.' ' ) 8 # @ # & @ 9 ' _ < @ & % ",
"3 * > , 7 7 4 , % ; ; < < 5 5 5 1 1 , , 3 3 5 5 < < < 3 3 3 3 ; * > 2 5 3 3 3 3 ",
", 3 > 3 , , 3 3 > < 3 3 3 3 3 3 ; , 3 3 3 3 4 ; ; ; ; 3 3 3 4 3 > , ; , 3 3 4 3 ",
", > , 3 3 4 3 , * < 3 ; 3 4 3 3 < ; ; , 3 3 4 3 < 3 3 3 3 3 4 3 * , 3 , 3 3 4 4 ",
"> , , 3 3 3 3 3 * ; ; 3 3 3 3 3 > ; < 3 3 3 3 4 3 * , 3 3 3 3 < * 3 , 3 3 3 3 3 "
};
