/* XPM */
static char *result[] = {
/* columns rows colors chars-per-pixel */
"40 40 74 1 ",
"  c #242623",
". c #242624",
"X c #252724",
"o c #262825",
"O c #262826",
"+ c #272826",
"@ c #272926",
"# c #282927",
"$ c #282A27",
"% c #292A27",
"& c #292A28",
"* c #292B28",
"= c #292B29",
"- c #2A2B29",
"; c #2A2C28",
": c #2A2C29",
"> c #2B2C29",
", c #2A2D29",
"< c #2A2C2A",
"1 c #2B2C2A",
"2 c #2B2D2A",
"3 c #2B2D2B",
"4 c #2B2E2B",
"5 c #2C2D2B",
"6 c #2C2E2A",
"7 c #2C2E2B",
"8 c #2D2E2B",
"9 c #2C2F2B",
"0 c #2D2F2B",
"q c #2C2E2C",
"w c #2D2E2C",
"e c #2D2F2C",
"r c #2D2F2D",
"t c #2E2F2C",
"y c #2E2F2D",
"u c #2E302C",
"i c #2E302D",
"p c #2F302D",
"a c #2F312D",
"s c #2E302E",
"d c #2F312E",
"f c #2F312F",
"g c #2F322E",
"h c #30312E",
"j c #30312F",
"k c #30322E",
"l c #30322F",
"z c #30332F",
"x c #31332F",
"c c #303230",
"v c #313230",
"b c #313330",
"n c #313331",
"m c #323331",
"M c #313430",
"N c #323431",
"B c #323531",
"V c #333531",
"C c #323432",
"Z c #333432",
"A c #333532",
"S c #333533",
"D c #333632",
"F c #343632",
"G c #343633",
"H c #353733",
"J c #353634",
"K c #353734",
"L c #363735",
"P c #353834",
"I c #363835",
"U c #363935",
"Y c #373936",
"T c #373A36",
/* pixels */
"bb:7dlllbN27ddlllNq7ddlxlbeeddlblb7eddlN",
"YIeebbAAGIiebbNAGIdibbAGGUlibbAGKIdibbAK",
"LKeelbbNAKeillbNAKiyllbAAKdillbAAKiilbNK",
"KG27dlbbNG72dlbbNG87dlbbNGeqdlbbNG77dlbA",
"bl77u7idsl7ei7iddlw7iqiidleeieiddl0er7ib",
"ANGKAedlbNAKGedlbNAGGidlbNAKGallbNAKAedN",
"ANAGAedlbNAGGidcbAAGGddlbNAGApllbAAGAelB",
"ANAGA9dlbNAGGidlbNAGGidlbNAGAillbNAGAegN",
"lddll:7eiddll:7eidkll25eiddlh27eiddld:7d",
"dlllNZAlellbNCSNillbNNANillbNNAxellbNNAA",
"lllNAGKNelbNAGKAilbNNGKAdlbNNGKNelbNNGKG",
"lllNNAKbillbNAGAillbNAGAdlbNNGKbilbNNAGA",
"e0idlbNd:eidlbNl2eiddbbl6eillbNi:eidlbNb",
"77%:75e7:7*:77ee20;:77ee:7*:77e7:4*:77ei",
"YY7ebNAGKYiibNAGKYdibbNGKYlibNAGKIdibNAI",
"LK7elbbNAKeelbbNAGielbbNAJiillbNAKiellNG",
"IK7ebbNAGIeebbNAGKdibbNAGKdibbNAGIiibNNK",
"75  @$::*2X.@@:::2oX@$**:2oXo$*--2oX+$*7",
"bllld:iidlbNb2iijlbNb7iddlbNb7iidlbNl2dl",
"GAGGVelbNAGKGilbNAGKKdlbNAGKHdlbNAGKAebA",
"ANAANelbbNAGGilbbNAGGdlbbNAGGdlbbAAKA7lC",
"diisi$27iidlf*27idlld:27iddld:37iddli&es",
":**::%*$@*-::*-*$-:22**$$*::2*-&@*=,:&:2",
"NbAGKIYGdNNDGPYKlbNAGIYGlNNFGITGdNNAKIYY",
"ldlbNAGbellbNNGNallbNAGbidlbNAGbellbNAGG",
"blbNNGKNilbNAGKAdgbNAGKNdlbNAGKNilbNAGKK",
"-&&277e2@**>7777&-*277e2$**:227:@=*2777i",
"JG27llbNNG77llbNNGiedlbNNGy7llbbNG77llbG",
"YIeiNbAGKIiibNAGGIdibbNGKIdsbNAGGIiibbAI",
"IK7ebbNAGKiebbbAGKdibbNAGIdibbNAGKeezbNK",
"AA::idbbbA22idlbbAe7idlbNA77idlbbA22idlA",
"ie32:o2267222$2227772$227722<$222772:o2e",
"KAKIGebnNAKIKibbNAKIKdbbAGKIKebbNGGIG4bA",
"ANAGN2dlbNNGNedlbNAGAidlbbNGN7llbNNGN2lN",
"GNAGC7llbNAGAellbNAGAellNNAKA7llbNAKZ:lA",
"7:222O##*2262+#$*1<22@$%:<131o#$*222>o$:",
"didlbNZj2idllmNx7islvNNceidlbmNh2idlbNNC",
"blbNAKKNilxNAGKAdlbNAGKAdbMNAGKNilbASGKK",
"ldlbNAGb7dllNAGNillbNAGNidlbNAGbellbNAGG",
"dhbNNAGbedlNNAGNiklNNAGNdlbNBAGMtlbNAAGA"
};
