/* XPM */
static char *bdc61c5d702947f3a26546971090ab918cmIZTY3ISnHmk1j[] = {
/* columns rows colors chars-per-pixel */
"40 40 81 1 ",
"  c #121727",
". c #131827",
"X c #1F232E",
"o c #242625",
"O c #262826",
"+ c #282A27",
"@ c #21242C",
"# c #27292B",
"$ c #2C2D2B",
"% c #2F312E",
"& c #313226",
"* c #30322F",
"= c #3B3C2C",
"- c #262931",
"; c #2B2E31",
": c #2E3131",
"> c #333532",
", c #363835",
"< c #3B3C32",
"1 c #3F4033",
"2 c #45442C",
"3 c #4E4C2F",
"4 c #514F2E",
"5 c #54522B",
"6 c #5F5B2B",
"7 c #414234",
"8 c #545231",
"9 c #5B5933",
"0 c #625F35",
"q c #6C672C",
"w c #78722F",
"e c #636034",
"r c #736E31",
"t c #767031",
"y c #7F7830",
"u c #827B33",
"i c #928A34",
"p c #9B9134",
"a c #9D9338",
"s c #A39936",
"d c #A89D37",
"f c #ADA237",
"g c #AEA238",
"h c #B2A637",
"j c #B5A937",
"k c #B3A738",
"l c #B5A938",
"z c #BEB137",
"x c #C2B536",
"c c #C4B637",
"v c #CABB37",
"b c #CCBE37",
"n c #C1B338",
"m c #D7C839",
"M c #DCCB3A",
"N c #E9D73A",
"B c #EFDD39",
"V c #F0DD38",
"C c #F2DF3A",
"Z c #F2DF3B",
"A c #F3E038",
"S c #F3E13A",
"D c #F4E13A",
"F c #F8E53B",
"G c #FAE73A",
"H c #FBE73A",
"J c #FAE73B",
"K c #FBE83A",
"L c #FCE93A",
"P c #FCE93B",
"I c #FEEA3A",
"U c #FEEA3B",
"Y c #FFEC3A",
"T c #FFEC3B",
"R c #FFF23B",
"E c #FFF53B",
"W c #FFF73B",
"Q c #FFF13C",
"! c #FFF53D",
"~ c #FFF93C",
"^ c #FFFE3C",
/* pixels */
">*$$%**%>>$$*$$*%>$$$>%*%>$$*$*>%*%%%%%>",
",,%$>*>>>,$$>>>>,,%$*>>,>,>%>>>>,,%%*%>,",
",,$$%>>>>,$$**>>>,%$>%>>>,%%:*>>>,%%%*>>",
",>$$%%*>>,$$%>*>>,$$*$>>>>$$%*%>*>$$%>>>",
">*$$%$%*$>$$%$*$**$$*$%%%>$$%$%*%*%%%$%>",
">>>,>$%*%>>,,$%*>>>>,$$%>>>,>****>>,>%%>",
">>>,>%**>>>,>%>**>>>,$>>*>>,>****>>>>%%>",
">>>>>$%*>>>>>%$*>>>>,$$>*>>>>$**>>>>>$%>",
"*%%*$$$%$*:**$$$%%***$$$$*%>%$$$$*%$%+%%",
"%*$<xbvvz=*>>>>>%*%%>>>>$*%>>>7nvvmz<:>>",
"**:<UWRWD>@:>>,>$>>>>>,>*%>>>-,GWRWG<:,>",
"**%<SUKUSpp9>,>>$*%>>>>>%>>$9aaDUKUB<>,>",
"%$$<ZTUUTR^u@>**$%%%%>*>$%*@u^RUUUTB=:>>",
"$$O&STUUUGTy$*$$$$+$$$$$$$&#uUGUTUTA=#$%",
",,$=DTTTUUUZDv<,,,%%>>>,><bSZTUUUUTS,%>>",
",,#=DTUUUTUTWm;->,%$%%>>;>MWUUUUTUTB<%=,",
",,$>ATUUIUIITVfh0>**>*:ekgZUUTUUUUTZ=:>,",
"+$o&STUTUITUUUW^r.oo+o.w^WTUUUUUTUQZ%o+$",
"**%=STUUIUUUUUHTi84>*34iUKUTIUUIUUUB=#**",
",>>1STUUUITUTUYUGQn,,cRGUTUUUTIUTUUV<$*>",
">*>1UWUUTUUTTUTIGWz;;xWGUUUTTUTIUUWG<$%>",
"%%%*rqxRIUTUUUUUUUNjjNTUYIIUUTUIWzrr*+%%",
"+$+$@ pWKIIUUTUTUUTWWUUTUUUUTIIK!p.o$+$$",
">*>><$fWKUYIUTUUUUUUGUUUITTUIIUK!s:,>,,,",
"%%**,-d!KUUUUTUUIUUUUUTIUTUUTUIIWs#>>>>,",
">**>=;d!GUUTUUUUTUTUTUUUIUUUUIUHRs->>>>,",
"$#++$$256SKKUGUUIUUTUTTIUIIHKUC652+$$%%%",
">>$%%>:-<U~!!WUUTITUTUITITRWWWH,#:$$*%%>",
",,$%>*>>7gllhxIYIIIITIIYUKzhhjg<>,%%**>,",
",,$%:>>>>:#$o5KITTTTTTYTTU3X$$;>,>%%*>>>",
">>$+%%>>*>$&O5CCAAAAAAAASB4+**>>*>$$%**>",
"%%$$+o$$$$$%O%===1=1======&$$#$$$$$$++$%",
">>,,>$>>>>>,,%;%>:>>>;$;>:>,,$>>>>>,>$*>",
">>>>>$%%*>>>>$%>*>>>,$%>>>>,>$*%*>>>>$*>",
",*>>>$>%>>>>>$%**>>>>$>%>>>>>$***>>,>+*>",
"$$$$$o+++$$$$+++#$$$$+++#$#$$o++#$$$$++#",
"%%%%>>>%$%%%%>>*$%%%>>>%*$$>>>>%$$***>>>",
"*%*>>,,>%**>>,,>%%>>>>,>$=*>>>>>***>>>>,",
"*%**>>>*$%%>>>>>%**%>>,>$***>>>>$**>>>,,",
"%*>>>>>>$%%>>>>>%%*>>>>>:*>>>>>>$**>>>>>"
};
