/* XPM */
static char *_331b3a6066348ef9dd9974e8d7855a6nEKP1S7s1xSN0jrt[] = {
/* columns rows colors chars-per-pixel */
"40 40 89 1 ",
"  c #121726",
". c #161A26",
"X c #1C1F26",
"o c #1A1E2B",
"O c #1E2026",
"+ c #1D222D",
"@ c #1D2131",
"# c #242625",
"$ c #262826",
"% c #282A27",
"& c #23262B",
"* c #26292B",
"= c #2B2D2B",
"- c #2F312D",
"; c #30322F",
": c #3C3D2E",
"> c #222632",
", c #262A31",
"< c #2B2E31",
"1 c #2E3132",
"2 c #333532",
"3 c #363835",
"4 c #3B3C32",
"5 c #3F4030",
"6 c #45442C",
"7 c #4C4B2D",
"8 c #514F2E",
"9 c #59562F",
"0 c #444532",
"q c #494932",
"w c #545333",
"e c #585630",
"r c #5B5831",
"t c #615E34",
"y c #67622C",
"u c #6D682D",
"i c #736D2E",
"p c #7B752D",
"a c #6B6733",
"s c #6D6832",
"d c #847C2C",
"f c #877F34",
"g c #9A902E",
"h c #878033",
"j c #8C8433",
"k c #928933",
"l c #9C9234",
"z c #A2982F",
"x c #A39936",
"c c #A99D36",
"v c #B2A535",
"b c #B7AA35",
"n c #BCAF35",
"m c #BEB136",
"M c #BEB138",
"N c #C6B836",
"B c #CABC37",
"V c #CDBE37",
"C c #C8BA39",
"Z c #CBBC38",
"A c #D1C137",
"S c #D4C437",
"D c #D3C338",
"F c #DACA38",
"G c #E7D537",
"H c #EDDB37",
"J c #E6D538",
"K c #ECD938",
"L c #EDDB3A",
"P c #F4E13A",
"I c #F5E23A",
"U c #F8E439",
"Y c #FAE639",
"T c #F9E63A",
"R c #FAE63A",
"E c #FDEA3A",
"W c #FEEA3B",
"Q c #FFEA3B",
"! c #FFEC3A",
"~ c #FFED3B",
"^ c #FFEE3B",
"/ c #FFF03A",
"( c #FFF33A",
") c #FFF33B",
"_ c #FFF53C",
"` c #FFF83B",
"' c #FFFB3B",
"] c #FFFF3B",
"[ c #FFFE3C",
/* pixels */
"2;==--;-22==--;;-2-=11;;;2----;;-2-----2",
"33-=222223--;;2233-==11222<=-11223--1-23",
"33==2-2223=---2223-:55500044550523---223",
"32===2-2;2==-2;2319HIPPPIIIIIIIL0----;;2",
"2-==-=-;-1---*&&*+7Q!!!^!!E^!!!Y61-----2",
"22232==2-2231ekjjhxRQ!EQ!E!QEQ^I0122---2",
"22232=;22223>k]!(((QQ!Q!!QQQQQ^Iq-322--2",
"22232=---224,j)YEEYQQEQE!QQQQYEIq-221--2",
"----;*=-;*wFDK!QQEQEQQQQQQEE(c68;-------",
"-2-2222;-*r!(!QQEQ!QE!EE!Q!!'l+---;22-22",
";;-22222-=rYEEEQ!QQ!!QQQEEPCSf13---22232",
";;122232;=rY!EE!Q!!QQEQEE^F32232--222222",
"=---;22;*o8YQQEQQ!EQQQQE!`G;=-2-=-----21",
"==%====*pzvYQQQ!!Q!QQQQElhp--=--%-%%----",
"33==;222C](QQEQQQ!EQQ^^!w>*-;22233---;23",
"33=-;2;1m(YQ!Q!E!QEQ^LJJr1;-;;;122--;;22",
"33=-;;21M_EQEQQ!E!EI!k:032;-;;3;23---2;3",
"%=##%%=&M(TQ!!QEQQ))]k.=%-###%%=%-%#%%%-",
";;;;-=-=m(EQQ^QQEELcva*;--22;-----22-=-2",
"2323;-;1m(QQQQ!EQ(S1,=2;22233-;;22232--2",
"2;222=;=M(E!!Q!QE!S32-;;;2232;;;-2222--2",
";----%-*m(Y^Q!QEQ!LMBi&;---;-%=----2-%--",
"%=%==$*&n_EQ!Q!Q!E!(]j #%%%====%%=%=%%==",
"2;;33331n_EEQQQEQQQY(cwt:1222332-1223333",
";-;2224<n(YQQQ!Q!QQ!EERIe=;22222---22222",
"2;;;223<N[(QQQQQQQEQEQ^Yqo*;2332--;22233",
"=*%=====ydgEQEE!!QEQQQEEvxk-===%%=%%----",
"22==;;;2,@7YQQEQQ!EQEQQE([J;-;2;;2-=---2",
"43=-222232eEQEQ!Q!Q!!QQ!Y^S:;32233--2;23",
"33=-2;2231eYEEQE!Q!QQQEQQ!IFJj=423-=-;23",
"22%=-;2-;=e!((!QQQQ!Q!QQ!Q!!`l@,;2=%---2",
"-===*#==-&7MbS!EEEQE!EQ!QQEE!byu;====%=-",
"32232=222223@h(EEQQQ!QWWWEQEQQ_Wq1333=;2",
"22222=;;;224>j`E!(!QQQWWEEQEQQWP0<222%-2",
"22232=;;2;23<7isssjYQEYWQUEEWU^I61232&-2",
"=*===$%*%*===#XOXX7!((__(__(_(_E6%===%%=",
";---222==-;;-22;;-8BDDDDZDDDDDDZ:*--2222",
";;;22232-;;22233--222232-2;22222--222223",
";-;;222-=-;;2222-;-21222=-<22222---22233",
";;222232=-;;223;--;22222-;;22222--222222"
};
