/* XPM */
static char *_50d176721624b37d33c0c8485762f1aOCFBCknQpdLfYyHR[] = {
/* columns rows colors chars-per-pixel */
"40 40 94 2 ",
"   c #151926",
".  c #1A1E2C",
"X  c #1E222B",
"o  c #1E2231",
"O  c #242624",
"+  c #272926",
"@  c #282A27",
"#  c #26282B",
"$  c #2B2D2B",
"%  c #2F312D",
"&  c #30322F",
"*  c #3D3E2E",
"=  c #222632",
"-  c #262A33",
";  c #292C31",
":  c #2E3132",
">  c #333532",
",  c #363835",
"<  c #3B3C32",
"1  c #3F4031",
"2  c #464529",
"3  c #4C4B2D",
"4  c #434333",
"5  c #4F4E31",
"6  c #504F33",
"7  c #535231",
"8  c #5A5732",
"9  c #5E5B32",
"0  c #615E2C",
"q  c #69652C",
"w  c #726C2C",
"e  c #696531",
"r  c #6E6A32",
"t  c #746F33",
"y  c #7B7532",
"u  c #857D2E",
"i  c #867E32",
"p  c #9C922F",
"a  c #878033",
"s  c #8B8334",
"d  c #938B34",
"f  c #9D9334",
"g  c #A19735",
"h  c #A39934",
"j  c #AA9F36",
"k  c #ADA135",
"l  c #B2A636",
"z  c #BBAE35",
"x  c #B6AA38",
"c  c #C1B337",
"v  c #CBBC37",
"b  c #CCBE38",
"n  c #CFC036",
"m  c #D0C137",
"M  c #D1C237",
"N  c #D5C537",
"B  c #D7C637",
"V  c #D0C138",
"C  c #D3C338",
"Z  c #D5C538",
"A  c #D5C638",
"S  c #D8C838",
"D  c #DACA38",
"F  c #DBCB38",
"G  c #DFCE38",
"H  c #E4D338",
"J  c #E7D539",
"K  c #E9D838",
"L  c #EDDA38",
"P  c #EDDB38",
"I  c #F1DF39",
"U  c #F3E03A",
"Y  c #F6E239",
"T  c #F5E23A",
"R  c #F7E439",
"E  c #FAE639",
"W  c #F9E63B",
"Q  c #FBE73A",
"!  c #FCE839",
"~  c #FCE83A",
"^  c #FCE93B",
"/  c #FFEB3A",
"(  c #FEEA3B",
")  c #FFEB3B",
"_  c #FFED3A",
"`  c #FFEE3B",
"'  c #FFF03A",
"]  c #FFF03B",
"[  c #FFF23B",
"{  c #FFF43B",
"}  c #FFF73B",
"|  c #FFFB3B",
" . c #FFFC3B",
".. c #FFFE3C",
/* pixels */
"> & $ $ > % > % > > $ $ & > & > % > $ $ % % > & & > % $ % % & & > % % % % % : > ",
", , % $ > % > > > > $ $ $ : : : > > $ ; % % > > > , % % % & > , > , % % > % > > ",
", , $ $ % > > > < 4 * * < 1 4 4 4 4 < * 1 % > > > , % % : & & > > , % % % % > , ",
", > $ $ % & % > b ! I Y Y Y U Y Y Y Y R P 7 % > , , % % % & % > > > $ $ % > > > ",
"> & $ $ $ $ $ > N } ` ` ` ( ` ` ` ` ` ` Q 2 X # # ; # % % % % % % > % % % $ % % ",
"> > > , > % & & N ' Q ( ( ( ( ` ( ` ( ( Q f a s s d 9 : , % % & % > > > > % % > ",
"> > > , > % % & N ` ! ! ` ( ( ( ( ( ( ( ( ` ' ` ' ..d o , % & & > > > > > % > > ",
"> > > > > $ & & b ( E / / / ( ( ` ( ( ( ( ( ( ( Q } d ; * % & & > > > > > $ % > ",
"& & % & $ $ $ $ 3 3 j ` Q ( ( ( / ( / ( / / / / ^ ` K B F 3 @ % % % % % % $ $ % ",
"% & & & > > > > $ = h  .' ( ( ` / / ( / ( ( ( ( ` ^ ` ' ` 9 ; & % & % > > > > > ",
"> % & > > , , > % $ s N v Y ( ( ( ( / ( ( ( ` / ^ ^ ^ ^ Q 9 : > % % & : > > , , ",
"% & % > > > > > $ % & > , G ` Q / / ( / ( ( ( ( ^ ^ ` ^ Q 9 > , % & & > & > > > ",
"$ $ $ > & > > % $ $ $ ; * J } ` / / ( / ( / ( ( ( ( ( ( Q 7 X $ $ $ $ % % > > > ",
"$ $ @ $ $ $ $ $ $ $ @ $ % y i f E / / ( / ( ( ( ( ( ` ( Q l h i $ $ $ $ % $ $ % ",
", , $ $ & > > > , , $ > & $ o 7 ( ` ( / ( / ` ( ( ( ` ( ^ ` ..F , , % % & > > , ",
", , $ > & > & > , , $ $ & > : 8 H H I / ( / / ( ` ( ^ ^ ` ! ` n > > % % & % > > ",
", , $ % > % > > > , & $ & & > > 4 * f ' Y ( ` ( ( ( ( / ( / ' m > , % % % > > > ",
"$ $ O O + + $ $ @ $ O O + @ $ $ $ . d | ' ` ( ( ( ` ` ( ( / ' m $ $ + + + + $ $ ",
"& & & & % $ % % > & > > & $ $ : > $ t l j P ` ( ( ( ( ( ( ( ' m & % % > > $ % % ",
"> > > > > $ & & > > > > > % % > > & % - & N ` ! ( ( ` ( ( ( } m > > > , > $ > > ",
"> > > > > $ & > & > > > > $ > > > > > > , N ` / ( ( ( ( ` ( ' m & > > , > $ % > ",
"& % % % % + $ $ $ & & & > @ $ $ & # y v c U ' / ( ( ` ( ( ( ' m % % % & % + % % ",
"$ @ $ $ $ @ @ $ + @ $ $ $ @ $ $ O   d  .' ` ( / ( ( ( ` ` ( ' n + $ $ $ $ $ % $ ",
"> & > > , , , > % > & > > , , < 9 7 k ` Q ( ( ( ' ( ( ( ( ( ' m % > & > , > , , ",
"% % & & > > > > % % & & > , ; 9 Y E E / ( / ( / / / / ( / ! ` b % % & & > > > > ",
"> & & > > > > > % & > > > $ o 7 E ( / / ( / ( ` ( ( ( / ( '  .F % & > > > , , > ",
"$ $ @ $ $ $ $ $ + @ $ @ % d h l / / ( ( / ( ( ( ( / / ( ( p u w + @ @ @ % % $ % ",
"> > $ $ & & > > > > $ $ & P  .} / / ( / ( / ( ( ( / / ( R 5 X # > > % $ % % % , ",
", , $ % > > > > > , & & * F ( E ( ( / ( ` ( ( / ` ( ( ( Q 9 : , , , % % & : > , ",
", , $ $ > & > > , : d H F E ( / / / ( / ( ( ( ` ( ( ( ( R 8 $ , > , $ % & > > , ",
"> > @ $ % % > & $ X g  .` ( / ( ( ( ( ( ( ( ( ( ( ( ' } ' 8 # , & > $ $ % % % > ",
"& $ $ $ $ O $ $ 0 q z ` ! ( ( / / ( / ( / ( ` ( ( ( F x z 2 @ $ $ $ $ $ $ + $ % ",
", > , , > $ > > F } ( ( ( ( ( ( ( ` ( ( ( ( ( ( Q ' s o & % % > > > , , > % % > ",
"> > > > > $ % > C ` Q ( ( ( ( ` ( ( ( ( ( ( ` ( ( } d ; , $ % & % > > > & $ % > ",
"> > > , > $ > & C ` Q ( ( ( ( ( ( ( Q ` Y u e w r t 7 : > % & & % > > , > $ % > ",
"$ $ $ $ $ + O @ F | ` ' ' ' ' ' } ' ' ' ` 2   X X X # % $ + @ @ $ $ $ $ $ + @ $ ",
"$ % $ > > > > & k A V C m A A C m m A m v 7 > & % % & & & > & % $ % % > % > > : ",
"> > & > > > > > % > % > > > > > % > > > > > , > % & & > > , , > % % % > , > , , ",
"% $ > & > > > & % % : % > > > > % % % & : > > > % % & & & > > & % % > > > > > > ",
"% & > > > > , > % % > > > > > : % % > > > > , & % & & & > , , & $ % & > > > , > "
};
