/* XPM */
static char *_580e2a3324d43bbd6c079521ed6033fuPzEHPJcrq9Ik5WQ[] = {
/* columns rows colors chars-per-pixel */
"40 40 64 1 ",
"  c #1A1F2D",
". c #1A1F30",
"X c #1D222C",
"o c #262826",
"O c #292B26",
"+ c #23262B",
"@ c #26292D",
"# c #2C2E2B",
"$ c #2F312E",
"% c #323327",
"& c #31332E",
"* c #3A3B2E",
"= c #262930",
"- c #2A2D31",
"; c #2E3131",
": c #333532",
"> c #363834",
", c #3B3C32",
"< c #3F4035",
"1 c #43432F",
"2 c #4B4A2E",
"3 c #59562F",
"4 c #5D5A2E",
"5 c #424232",
"6 c #484731",
"7 c #4E4D32",
"8 c #514F31",
"9 c #525132",
"0 c #5F5C32",
"q c #625E2E",
"w c #615E31",
"e c #65612F",
"r c #6B672F",
"t c #646131",
"y c #696431",
"u c #726D32",
"i c #7A7433",
"p c #8F8734",
"a c #928A34",
"s c #988F35",
"d c #9B9133",
"f c #A39935",
"g c #AB9F36",
"h c #AEA236",
"j c #B1A532",
"k c #B4A837",
"l c #B9AC34",
"z c #BDB036",
"x c #C9BB36",
"c c #CFC035",
"v c #D3C337",
"b c #DACA37",
"n c #D6C638",
"m c #DBCB38",
"M c #E0CF38",
"N c #E3D239",
"B c #E9D73A",
"V c #EDDA3A",
"C c #F0DD39",
"Z c #F5E239",
"A c #FBE73A",
"S c #FFEB3B",
"D c #FFF23B",
"F c #FFFB3B",
/* pixels */
":&##$$$:::##$#$$$;###-$$$;@#&$&&$;$#$$$:",
">>##:::::>$#&,<,,5***,,<<<*&&:::>>$$:&:>",
">>##&:;:>>$$&zBmNNmMNNmNmNv*;::::>$$$:::",
">:##$&&-=#++@vDDDSDSDSDSDDV$+#@-;:##$$::",
":&#####1eyqqtbSSASASASASASVrwwey6;$#$#$:",
":::>:&@iSSSSSSSSSSSSSSSSSSSSSSADs=>>:#$:",
":::::@ uDASSSSSSSSSSSSSSSSASSSSDp.;::#$:",
"::::5aplSSSSASSSSSSSSSSSSSSSSSADxpd7;$$:",
"##&-7SDSSSSSSSSSSSSSSSSSASSSSSSSDDDq@##$",
"&::#9ZSSSSSSSSSSSSSSDSSSSSSSSSSSSAAq=*::",
":&:-9ZSSSSSSSSSSSSSSSSSSSSSSSSSASSAw->>>",
"#&;@2ZSASSSSSSSSSSSSSSSSSSSSSSSSASA0=;::",
"##15tZSSASSSSSSSSSSSSSSSSDSSSSSSSSAu56::",
"#&xZVSSSSSSSSSSSSSSSSSSSSSSSSSSSASSCZx##",
">>bDSSSSSSSSSSDSSSSSSSSSSSSSSSSSSSSSDm,>",
">>nSSSSSSSSSSSSSSDSSSSSSSSSSSSSSSSSSDb::",
">>nDSSSSSSSSSSSSSSSSSSSSSSSSSSDSSSSADb:>",
"--nSSSSSSSSSSSSSSSSSSSSSSSSSSSSSSSSSSb##",
">>nDSSSSSSSSSSSSSSSSSDSSSSSSSSSSSSSSDm:#",
"->nSASSSSSSSSSSSSSSSSSSSSSSSSSSSSSSADb::",
">>nSSSSSDSSSSSSDSSSSSSSSSDSDSSSSSSSSSb::",
"->nDSSSSSSSSSSSSSSSSSSSSSSSSSSSSSSSSDb&#",
"==nSSSSSSSSSSSSSSSSSSSSSSSSSSSSSSSSADb##",
":>nDSSSSSSSSSSSSSSDSSSSSSSSSSSSSSSSSDb,>",
";;vDASSSSSSSSSSSSSSSSSSSSSSSSSSSSSSADb,:",
";:MFDSSSSSSSSSSSSSSSSSSSSSSSSSSSSSSDFN>:",
"##sjlASSSSSSSSSSSSSSSSSSSSSSSSSSSSAzjs#$",
">:oX6ZSASSSSSSSSSSSSSSSSSSSSSSSSSSA3+#&:",
">>$#9ZSSSSSSSSSSSSSSSSSSSSSSSSSSSSAq#::>",
">>$@7ZSSSSSSSSSSSSSSSSSSSSSSSSSSSAAe@::>",
"::Oo2ZSSSSSSSSSSSSDSSSSSSSSSSSSSSAS4@$$:",
"$$$o2ZAASSSSSSSSSSSSSSSSSSSSSSSSSAA4+o#$",
":::>,49aSAASASSSSSSSSSSSSSSSSSADh8t<:#$:",
":::::oXuDSDSDSSSSSSSSSSSSSAASSSFa.;::#$:",
":::>:$@uZVVVVASSSSSSSSSSASSCVVBSp@>::o;:",
"#O###oo#%*%*%cSAASAAASAAASB*%$%%#####o#o",
"$$$&:::$o$$$:bFDDDDFFDFDFFC*-;$##$$$::::",
":;;:::::;$;:>skhhhhhhhhhgjf,::>:$$::::>>",
"$$&$::::$$$&&---+@@----@+@#$::::#$&&::::",
"$$::::::$$$::>>:&&::::>:&&::::::$$&:::::"
};
