/* XPM */
static char *a7a78f9620474919f226771a297c60ddpBEqhMuszlPXJqhK[] = {
/* columns rows colors chars-per-pixel */
"40 40 101 2 ",
"   c #151824",
".  c #1A1D24",
"X  c #151A2E",
"o  c #1A1E28",
"O  c #1F2227",
"+  c #1F222B",
"@  c #1D2131",
"#  c #242626",
"$  c #282A27",
"%  c #23262C",
"&  c #26292D",
"*  c #2B2D2B",
"=  c #2F312D",
"-  c #31332F",
";  c #37382D",
":  c #3E3E2D",
">  c #242731",
",  c #262A31",
"<  c #2A2D32",
"1  c #2F3131",
"2  c #333532",
"3  c #363834",
"4  c #3A3B32",
"5  c #3F402F",
"6  c #43432D",
"7  c #48472E",
"8  c #4B4A2E",
"9  c #504E2D",
"0  c #5F5B2B",
"q  c #424232",
"w  c #4B4B34",
"e  c #504F30",
"r  c #595733",
"t  c #5C5A34",
"y  c #575638",
"u  c #65612F",
"i  c #6C672F",
"p  c #76702E",
"a  c #666230",
"s  c #6A6634",
"d  c #6F6A33",
"f  c #716D34",
"g  c #767134",
"h  c #797334",
"j  c #847D34",
"k  c #8F8733",
"l  c #928A34",
"z  c #9C9335",
"x  c #9F9638",
"c  c #A49937",
"v  c #A99F37",
"b  c #A49A38",
"n  c #AEA337",
"m  c #B3A736",
"M  c #B4A836",
"N  c #B9AD37",
"B  c #B7AA38",
"V  c #B9AD38",
"C  c #BEB137",
"Z  c #BFB239",
"A  c #C7B836",
"S  c #C8BA37",
"D  c #CCBD36",
"F  c #CDBE36",
"G  c #C2B538",
"H  c #C2B539",
"J  c #C7B939",
"K  c #CABB38",
"L  c #CCBC38",
"P  c #CCBD38",
"I  c #D2C237",
"U  c #D2C238",
"Y  c #D5C538",
"T  c #DACA39",
"R  c #D8C83A",
"E  c #DCCC39",
"W  c #E0CE38",
"Q  c #E1D139",
"!  c #E8D63A",
"~  c #E9D73A",
"^  c #EAD83A",
"/  c #EDDB3A",
"(  c #F3E03B",
")  c #F6E339",
"_  c #F6E33B",
"`  c #FBE73A",
"'  c #FBE83A",
"]  c #FCE83A",
"[  c #FCE83B",
"{  c #FDEA3A",
"}  c #FFEA3B",
"|  c #FFEC3B",
" . c #FFEC3C",
".. c #FFF23B",
"X. c #FFF33B",
"o. c #FFF43B",
"O. c #FFF53C",
"+. c #FFFA3B",
"@. c #FFFB3B",
"#. c #FFFC3C",
"$. c #FFFF3C",
/* pixels */
"2 2 2 2 2 2 = * 2 2 2 2 2 2 - - 2 3 3 2 2 2 - - 2 3 2 2 2 2 = * 2 2 2 2 1 2 - = ",
"2 3 2 2 1 1 2 * 2 2 2 1 , & & % * < , , & & & & , 2 2 2 - = = * 2 2 2 2 2 1 = = ",
"3 2 2 2 2 2 2 * 2 3 2 q d f d d f f f f f d d d f w 2 2 2 - 2 = 2 2 3 2 2 1 = 2 ",
"2 2 2 2 = = - * - 2 * t { X.}  . .X. .o.| X.| | o.j < 2 - = = * = 2 2 = = = = = ",
"* $ # * * * $ % # % . 9 { { { { { { { { { { { { X.p   $ & & & $ $ $ $ * * * * * ",
"2 = * 2 3 < j H B B m J } { { { { { { { { { { {  .U M N V Z z ; 2 = * 2 2 2 2 2 ",
"- = * 2 2 > n $.X.X.O.X.{ {  .{  .{  .{  .{  .{ { X.o.X.X.@.R 2 * 1 * 2 2 2 2 2 ",
"2 2 * 3 q 2 v X.` ` { { { } { { {  .{  .{  .{ { { { { ` ` o.I 4 4 3 * 2 3 3 2 2 ",
"* = . i ( ~ _  .{ { { } { { {  .{  .{  .{  .{ { } } } } { { } ! ` k   = * * = = ",
"2 2 % g X.| | { {  . .} | {  .{  .{  .{  .{  . .} } {  . .{ } } @.z % = $ * 2 2 ",
"3 2 & g | { { { { { { { { | | { {  .{  .{  . .{ }  .{ { {  .{ ` O.z & 2 = * 3 3 ",
"3 2 & g | ` { ' { {  .} { | { {  .{  .{  .{ {  . .{  .{ { } { ' +.z , ; = * 3 3 ",
"2 2 & h @.o.o.O.X. .{ { { } { { { } } {  .{  .{ {  .{  . .{ } { O.l X & * * 2 2 ",
"= = $ w l l l k l ^ } { { { { { { {  .} { { {  . .{  .{ {  .} { X.F l z 7 # * * ",
"3 3 2 1 , & % + < R X.{  . .| |  .{ { { }  . .} {  .{  . .} } } { X.O.O.d , 2 - ",
"2 2 2 2 2 ; 2 = 4 Y { _ _ _ _ _ _ {  .{ } } { } } {  .{ { } { { { { ' { s & - = ",
"3 4 3 3 2 2 2 = 3 y t t r r r r r P  .{ ' ' { ` { { { { {  .{ { { { }  .s < ; 2 ",
"* $ & * * $ $ $ $ # % & % # % # + A @.X.X.X.X.X.X.| { |  .{ {  . .{ }  .u + $ * ",
"< = $ = - = = = * * * - 2 - - * * c U K F K F F S ^  .{ { {  .{ { { {  .a & - = ",
"2 - * 2 3 2 2 - 2 - - 2 2 2 2 - - - - 2 4 3 2 3 * n O.' {  .{  . .{ {  .s < 2 2 ",
"2 2 * 2 2 2 2 2 - 2 = 2 2 2 2 2 - & % , < , , , + v O.{ { {  .{ { { }  .s < 3 3 ",
"- = $ 2 2 - 2 - = * * 2 2 - 2 - = j c c b b c c z R | { }  .{  . .{ }  .s & 2 2 ",
"* $ $ $ # $ * * * $ $ $ # # * $ & F @.o.O.@.o.o.@. .{ { {  . .{ } { {  .0 . * * ",
"2 2 2 2 = * 4 2 2 2 2 - 2 2 4 4 2 H X.` ' ' ' ' ' {  .} { } {  .{ { { | u % 3 3 ",
"2 2 = 1 = = 3 2 4 N R Y Y Y Y Y Y (  .{ } { } { { }  .{ { {  .{  .{ {  .a % 3 3 ",
"3 2 2 = * * 2 1 4 E @.| X.X.X.} X.| {  .{  .}  .} } {  .}  .{ { { { | X.u % 4 4 ",
"= * * ; 7 6 q 6 8 R  .{ { { { { { { { { }  . .{  .{  .{  .} } { { ( W ~ 0 O * * ",
"2 2 , f { _ _ _ _ { | { { { { } { { {  .} { {  .}  .{  .{ } } { @.z < 4 2 = = * ",
"2 3 < g X.| | |  . .{ { {  .{  .{ }  .{  .{  .{ {  .{  . . .{ { @.z > 2 1 2 2 = ",
"3 4 < g { { { { { { | { { {  .{ } } {  .{  .{  . .{  .} { { { ` @.z > 3 2 = = - ",
"2 2 , g o.{ { { { }  .{  .{ {  . .{  .{  .{ {  .{  .{ { } { { ` @.l & 3 - = 1 = ",
"2 * O g X.| | { { { { { {  .{  .{  .{  .{  .} { } { { { } } } { @.z o - 2 = = 1 ",
"2 2 & w h s H X.` { ' { {  .{ { {  .{  .{  .{ } { { { { { | E d g e & 2 2 2 2 2 ",
"2 * * 2 1 @ b $.} } X.} { }  .{  .{  .{  .{ } } }  .X. .| O.Y < & * = 2 3 2 2 2 ",
"2 - * 2 4 < z / E Q Q ~ } { { { { | { ` { { } { { ~ W Q Q ^ C 2 - = = 2 3 2 2 2 ",
"2 - * * * $ 4 q 5 q ; a _ { ` { ` ` ` ` { ` ` ` | k - 6 : : 5 = = = * = * * 1 1 ",
"2 2 * 2 * * 2 1 1 1 & t O.+.+.O.X.@.@.@.@.@.@.@.$.j % = * & 2 2 2 = = = = * 2 3 ",
"2 2 2 = - * 2 3 2 2 = 7 z z b z c z z z z z x z c t < - = = 3 2 2 2 2 = * = 3 3 ",
"2 2 2 2 * 2 3 3 2 2 2 = + % < > > > % % o % , , > 1 - 2 * = 3 2 2 2 2 2 = = 3 3 ",
"2 1 * - = * 2 * 2 1 1 = = = 2 2 2 2 - 2 * 2 3 - 2 - = = * * 2 - = 1 = = * $ = 2 "
};
