/* XPM */
static char *Untitled_design__7_1645722540[] = {
/* columns rows colors chars-per-pixel */
"40 40 67 1 ",
"  c #0F1323",
". c #121727",
"X c #141827",
"o c #1D1F24",
"O c #1E2125",
"+ c #1E222B",
"@ c #242624",
"# c #262826",
"$ c #282A27",
"% c #23262E",
"& c #26292A",
"* c #2B2D2B",
"= c #2F312E",
"- c #31322F",
"; c #37392E",
": c #3C3C2D",
"> c #242731",
", c #252832",
"< c #2B2E31",
"1 c #2E3131",
"2 c #333532",
"3 c #363835",
"4 c #3C3D32",
"5 c #3F4033",
"6 c #42422E",
"7 c #4D4B2C",
"8 c #56532C",
"9 c #414130",
"0 c #504F31",
"q c #555433",
"w c #595732",
"e c #5D5A32",
"r c #6E692F",
"t c #756F2F",
"y c #78722F",
"u c #646135",
"i c #736E33",
"p c #767134",
"a c #7F7830",
"s c #817A33",
"d c #918833",
"f c #988F34",
"g c #9C9335",
"h c #9D9338",
"j c #A89E37",
"k c #A69C39",
"l c #A89D38",
"z c #ADA237",
"x c #AEA338",
"c c #B3A637",
"v c #B5A937",
"b c #B2A638",
"n c #B6A938",
"m c #BEB036",
"M c #C2B437",
"N c #CBBD37",
"B c #C2B438",
"V c #CDBE39",
"C c #D7C839",
"Z c #E9D73A",
"A c #EEDC3A",
"S c #F1DE3A",
"D c #F4E13A",
"F c #FAE73B",
"G c #FEEB3B",
"H c #FFF43B",
"J c #FFFC3C",
/* pixels */
"2-**=-=222**====22**==2-=2*====2-2=*===2",
"33=*2-2223=*-22223==-22223==222223==2-22",
"33**=22223*=--2223==2=2222===-2223===223",
"32**==2=22**=-2=22**==-223=*=--1-2*===22",
"2-****===-**=*===2**1**==2**=*===-===*=2",
"22232==--2232==-=2223-=--2233=2--2222==2",
"22232==222222=--23222<-222232===12222*=2",
"22222*==22222=***1122**<*<222==222222==2",
"===2=**=======:559666:::962====*=====*==",
"==2=222=*2-2<wSDDDDDDFDDDSq1222-==-22222",
"=2=22232**11>qGGHGGGGGGGGF0,1<22===2-232",
"-==22231:zvccMGGGGGGGGGGGGmbbvz4=-222222",
"*===--1%-GJHHHGGGGGGGGGGGGHHHJG;O*==--22",
"**#***78eDGFFFGGGGGGGGGGGGGFFGSe86#****=",
"33*=2,lHFGGGGGGGGGGGGGGGGGGGGGGFHk&-2223",
"33*=-*lHGGGGGGGGGGGGGGGGGGGGGGGFHk%---22",
"32*=2*jHFGGGGGGGGGGFGGGGGGGGGGGFHk&-2223",
"**@@@.gJFGGGGGGGGGGHHGGGGGGGGGGFJh o##&*",
"2-12irMHGGGGGGGGGGZvnZGGGGGGGGGGHmip;**1",
"2225FHGGGGGGGGGGGHB<<BHFGGGGGGGGGGHF4*22",
"2224DGGGGGGGGGGGFHB22NHFGGGGGGGGGGGA4*22",
"--*:DGGGGGFGGGFHd00-=77dGFGGGGGGGGGD:$**",
"&$&;SGGGGGGGGGHJtX&=*&XyJHGGGGGGGGGS-$**",
"2-24DGGGGGGGGAxne*22232ucxAGGGFGGGGS4233",
"--*4DGGGGGGGHC1,===2213=%1CHFFGGGGHS4232",
"---:DGGGGFGSDV42==2=332-=;CDDGGGGGGS3233",
"**$;SHGGGFHa*;***$$***=*$$-$sGFGGGGS;$**",
"22&;DGGGGHJa+122=3====2=23=OsJHGGGGS;-;2",
"33&;SGGGDhgw=22333===22333=*efhDGFGA4=23",
"33*;GHHHD2+*=2=223==2=2233===>4DHHHF4222",
"22$;MNNNm5**=====2=*=====3=$==5mNNNM;*-2",
"==**$#&&*=$*=$**=****#=******#**&*$*&#**",
"22332=-222233--222333=-222333=-222232*22",
"22222*---2222*=--2222=---2222*---222-*-2",
"2;222*-=22222*---2232*--22232*---2232*-2",
"****&$$$$****#$$&*&**$$$$**&&#$$$***&#$&",
"=*=22221**==-22=**===222*=*2222=***22222",
"22*22232*2-22332==222232=2-22222=--22233",
"--22222**-=22222=2=22222==--2222*-222222",
"*--22232*==22222===22232=-222222=--22232"
};
