/* XPM */
static char *Untitled_design__9_1645722576[] = {
/* columns rows colors chars-per-pixel */
"40 40 69 1 ",
"  c #131722",
". c #171A24",
"X c #1A1D25",
"o c #11172E",
"O c #1A1D28",
"+ c #161C33",
"@ c #1F2226",
"# c #1E222B",
"$ c #252625",
"% c #262826",
"& c #292A27",
"* c #23262C",
"= c #26292D",
"- c #2C2E2B",
"; c #2F312D",
": c #30322F",
"> c #37382F",
", c #38392F",
"< c #232731",
"1 c #262932",
"2 c #2B2E31",
"3 c #2E3131",
"4 c #333532",
"5 c #363834",
"6 c #3B3C32",
"7 c #43432D",
"8 c #4E4D2E",
"9 c #444431",
"0 c #4C4C33",
"q c #555434",
"w c #585736",
"e c #5C5A34",
"r c #615E33",
"t c #7E772F",
"y c #656233",
"u c #696533",
"i c #6E6933",
"p c #706C35",
"a c #7A7433",
"s c #7F7935",
"d c #7F7938",
"f c #847C2F",
"g c #827C34",
"h c #8B8335",
"j c #958C34",
"k c #988F36",
"l c #958D38",
"z c #9A9136",
"x c #ADA135",
"c c #BBAD37",
"v c #BAAD39",
"b c #BEB137",
"n c #C3B435",
"m c #CCBD37",
"M c #C4B538",
"N c #CBBC38",
"B c #D3C237",
"V c #DECD37",
"C c #D3C238",
"Z c #DCCC3A",
"A c #E6D43A",
"S c #E9D73A",
"D c #EBD93A",
"F c #F1DE3A",
"G c #F5E23A",
"H c #FAE63A",
"J c #FEEB3B",
"K c #FFF33B",
"L c #FFFB3C",
/* pixels */
"4:--4;4;44&-43:::4--:;:4:4-;;;;4;3;;;;;4",
"55--434445--444445;;:44445;;4:4455;;4;45",
"55--;44445-;;34445;-::::45;;;:4445;;;445",
"54--;;4;45--;;:444:;:>::45;-;:34:4--;;34",
"43----;;-4--;-**==******=1-3;-;;;3;;;;;;",
"44455--4;4454:upipppiiiiiu555;::;4453;;4",
"44455-;4:4444:DKJJJJKJKJKD634-;344444;34",
"44444-;;:66667SKJJJJJJJJJA966,>:4444:;;4",
";-3:2&-:;cGSDDHJJJJJJJJJJJDDSGx-:;;;;-;;",
";4::4441*mKJJKJJJJJJJJJJJJKJJLv#=;:44444",
";;44540kjAKJJJJJJJJJJJJJJJJJHKZlj9:44454",
"44-442rKKJJJJJJJJJJJJJJJJJJJJJJKJw-:;454",
"---4:2eHJHJJJJJJJJJJHJJJJJJJJJJJG8-:;:4;",
"--&--*eHJJJJJJJJJJJJJJJJJJJJJJJJG8*-;-;;",
"55--:2eHJJJJJJJJJJJJJJJJJJJJJJJJHq=;:455",
"55;*amNJJJJJJJJJJKBuiAJJJJJJJJJJHNNi=::4",
"54:OzLJJJJJJJJJJHKb*-BKJJJJJJJJJJJLj#5:5",
"--& jLHJJJJJJJJJJKn$-BJJJJJJJJJJJHKg.--;",
"4:4*kLHJJJJJJJJJJKn-4CKJJJJJJJJJJHLh#-::",
"445<kLJJJJJJJJJJHKM45BKJJJJJJJJJJJKh1:::",
"444<zLHJJJJJJJJJHKM45BJHJJJJJJJJJHKh*:34",
":::#jLHJJJJJJJJJKLm24VLKJJJJJJJJJHLh*--;",
"-&;XjLJJJJJJJJJKbla&-glMKJJJJJJJJHLfO---",
"::5<zLHJJJJJJJHKao2442+gKHJJJJJJJJKh2555",
":;4*kLHJJJJJJJJKg=>:462hKJJJJJJJJHKh<545",
"4:4<zKHJJJJJJJHKg=::461hKHJJJJJJJHLh*554",
"&&-OjLJJJJJJJJJKt@---;#gKHJJJJJJJJKh#;-;",
"54-&0ygJJJJJJJHJg1:;;:<gKHJJJJJJHsr7-4:4",
"55-:2#qJJJJJJJKLh143:5*jLKJJJJJJG0#-:445",
"54--:4eHJJJJJHvvu2:;:41ivvJJJJJJHw-::444",
"44&-:=eJKJJJJG6144--;;;;19GJJJJKJq&--::4",
"-:---@qFFHJJJG7&-;---&-;-9GJJJHFD8*-&&--",
"54554-476mJHJG934445434430GJHKc,94554-44",
"44444-:22CLJKJ7;44454;;;-0JKKLb=;4444-:4",
"54454-::4igssa6;44444-:436sdssy;:4454&34",
"&&---$&&-*@*#X%&&----&&&-&##@.@-&----*&&",
"4--4444:-::4:5:;;;;;444:-;::>44;--;;4444",
"44:44444;::44554;:;44454;4:44544-4444455",
"--4:4442;;:;4444;;;;4444;;3:4444-;:;4454",
"3:444454;;;44444;:34444:;;44445:;4444444"
};
