/* XPM */
static char *_8beeca0da284774fd0d0debd0d4ecd2RqfL50HOlYa8bkyU[] = {
/* columns rows colors chars-per-pixel */
"40 40 95 2 ",
"   c #141823",
".  c #181D31",
"X  c #1F2226",
"o  c #1D212D",
"O  c #1C2131",
"+  c #212327",
"@  c #262826",
"#  c #292B26",
"$  c #22252A",
"%  c #26292C",
"&  c #2B2D2B",
"*  c #2F312D",
"=  c #31332E",
"-  c #37392F",
";  c #393A2E",
":  c #262931",
">  c #2B2E31",
",  c #2F3132",
"<  c #333532",
"1  c #363835",
"2  c #3A3B32",
"3  c #4E4C2E",
"4  c #514F2E",
"5  c #55532E",
"6  c #59562D",
"7  c #5E5A2A",
"8  c #474630",
"9  c #4C4B32",
"0  c #514F32",
"q  c #565433",
"w  c #595735",
"e  c #5D5A34",
"r  c #625F33",
"t  c #66612E",
"y  c #6A6533",
"u  c #6E6934",
"i  c #777237",
"p  c #827C33",
"a  c #8A8334",
"s  c #908735",
"d  c #928A35",
"f  c #988F36",
"g  c #9D9335",
"h  c #A59B37",
"j  c #ACA137",
"k  c #B1A536",
"l  c #B6A937",
"z  c #BAAD37",
"x  c #B1A638",
"c  c #B5A938",
"v  c #BBAE38",
"b  c #C5B837",
"n  c #C3B538",
"m  c #C7B939",
"M  c #C8BA38",
"N  c #CCBE38",
"B  c #CFC038",
"V  c #D6C637",
"C  c #D1C238",
"Z  c #D5C538",
"A  c #D8C938",
"S  c #DCCB38",
"D  c #DCCC38",
"F  c #DDCC38",
"G  c #E0CF39",
"H  c #E0CF3A",
"J  c #E2D13A",
"K  c #E5D439",
"L  c #E8D63A",
"P  c #EBD938",
"I  c #ECDA38",
"U  c #EEDB3B",
"Y  c #EFDD3A",
"T  c #F2DF3A",
"R  c #F7E43B",
"E  c #F8E53B",
"W  c #FAE63A",
"Q  c #FBE73A",
"!  c #FAE73B",
"~  c #FCE83A",
"^  c #FDE93A",
"/  c #FCE83B",
"(  c #FDEA3A",
")  c #FFEB3A",
"_  c #FFEB3B",
"`  c #FDEA3C",
"'  c #FFED3C",
"]  c #FFF13B",
"[  c #FFF23B",
"{  c #FFF33B",
"}  c #FFF43B",
"|  c #FFF53B",
" . c #FFF43C",
".. c #FFFB3C",
"X. c #FFFE3C",
/* pixels */
"< = & & * * * * < < # & * , * * < < & & & = < < & < & & = = = < = < & & * = * < ",
"1 1 * & < < < < 1 1 * & = < < < < 1 * * < < < < 1 1 = = < = < < < 1 * * = < < 1 ",
"1 1 & & * = < < < < & & * = = < < 1 * & < & < < < 1 & % > & , < < 1 * = * , < 1 ",
"1 < & & * = , < 2 2 - < 1 = * < < 1 & & * * = < < < - - ; - 2 < < < & & * < = < ",
"< = * & & & = ; B J D D S 3 % * * * & & * & & = > 8 D D D J B ; = = * & & & & * ",
"< < < < 1 % o * U  .) ] ' q & = < < < 1 1 * = = > 9 (  .) | Y , O > < 1 1 * * < ",
"< < < 1 , 5 a d T ) Q ) Q q & < < < < < < = * = > 9 R ( Q ) T a d r , < < & < < ",
"< < < 1 : a X.{ ' ( ) Q Q 5 % = * < < < < , * < > 9 Q Q ) ) ) | X.g > 1 < * * < ",
"* * * < $ p ' Q ) Q ( ' ) 3 % = * * * * < & & * & 8 E ' ( ' ( Q { d % - & # & = ",
"* * = 1 > a { Q Q ) ( ( ) Z Z h * * < * < < , g S C ( ' ( ( ( ( { f % 1 < < < < ",
"* < = & O p | Q Q ' ( ( ' ' X.N & , < < < < , n X.Q ( ( ( ' ( Q { d . > < < 1 < ",
"* * < u u h | ) ( ) ) ' Q Q { m & < = < < < , v ] Q ( ( ' ( ( Q { l y y < < 1 < ",
"* & ; T { ) ) Q ( ( ) _ _ Q ] m # & * , = = , v ] Q / _ ) ) ) _ ( ' { K < < < < ",
"& % = I ) ) Q ) ( ' _ _ ' Q ] b & & # & & & # z  .Q _ _ ( ' _ _ Q ) { S = % & * ",
"1 1 - I { Q ) ) ( ' ) _ ) ) ] m 1 1 * * < < , v  .) _ _ _ _ ) Q ) Q ) J - = < 1 ",
"1 < = I ) ) ) ) ' ( _ _ _ Q ] b > , * * , & : z  .Q _ _ _ _ ) ' ) Q { D - * < < ",
"1 - , P ' Q _ _ _ _ _ _ ' Q ] N q w ; & - q 0 m { Q _ _ _ _ _ _ _ Q ' D < < < 2 ",
"* & # P  .) _ ) _ _ _ _ ) _ ) ! R Q 7   5 E Q Q ) ) _ _ _ _ _ _ _ ) ] S & @ # & ",
"= * 2 R ) Q ' ' _ _ _ _ ) _ ) ) ( ' y O e / ' ( Q ' ) _ _ _ _ _ ) Q { D < # < * ",
"< , 2 Y ' ( ( ' _ _ _ ) ' Q ' Q ' ' u : r _ ( Q ( ( ) _ _ _ _ _ ) ) { J 2 # < < ",
"1 , 2 Y ' ( ( ( _ _ _ _ _ _ _ ) ) _ y : e _ ' ) / _ _ _ _ _ _ _ ' ( | J 2 & = < ",
"= & - Y ] ( ' ( _ _ _ _ _ _ _ ) _ _ y o w _ ' Q _ _ _ _ _ _ _ ) ( ( ) J - $ & < ",
"& @ = I Q ( ) ' ) _ _ _ ' ) ' Q _ _ t X 6 ! _ _ _ _ _ _ _ _ Q ' ( ( ' D & # @ % ",
"< = ; R ] ' ) Q _ _ _ _ ( ' ( ) _ _ e . q / _ / _ _ _ _ _ _ ) ) ' ( | L 2 < 1 1 ",
"= * - a d n ( ( ) _ _ _ _ _ _ Q _ _ k d h / _ ) / _ _ _ _ _ _ Q { m d a < < < 1 ",
"< = < & O p  .( ) ' _ _ _ _ ) ) _ ) { { ] _ _ Q _ _ _ _ _ _ Q ) | d o > < 1 1 1 ",
"# # % = X a { ) Q ( ( ( _ _ ) ' ) Q ( ( Q ( ) ) Q _ _ _ ' ( ) Q ] d + & & # * & ",
"1 < & & : p ' Q ) ) ' Q _ _ _ Q ) ' ( Q ) ' ' Q ' ) _ _ ) ' Q Q { g + * < * < 1 ",
"1 1 * = : a X.{ ) _ ) ' _ ) Q ) _ _ _ _ _ _ _ _ ( ( ] ( ) Q ) ] X.g % = < = < 1 ",
"1 < & * & y v x R ' Q ) Q ) ' ) _ _ _ _ _ _ _ ) ' Q _ ( ) _ E c v i % * = , < 1 ",
"< < # & * * : < K ] _ _ _ _ Q ' / _ _ _ _ _ ( ' ( ( Q ( ( Q U < % < # & & * < < ",
"* * & & # # # = K Q R Q ! _ ) _ _ _ _ _ ) ' ' ( ( ' Q Q Q ) P * & * & & & @ & & ",
"1 < 1 1 < & < < 0 q w w w S ) Q ) ) Q Q ( Q ) Q ) K e q q 3 q < < < < 1 1 & < < ",
"< = < < = & * = > > > > < G X.{  ...]  . . .......Y 1 > , % & , * < < < < & & < ",
"< < < < < & = = < < < 1 1 g c k x x x x c j c j c h 2 1 1 & < < < < < 1 < # , < ",
"& & & & & @ @ % # & & & & X X X + + % + o X X X X $ % # # @ @ # # & # & # @ % @ ",
"* * * , < < < = & * * * * < < * * = = = < < < < = = & < = < < & # , * < * < < < ",
"< * * < < < < < * * < < < < 1 1 * = = < < < 1 < & < < < < < < < * * < < < < 1 1 ",
"* * < < < < < < & * * = < < < = * , * = < < < < & & < * < < < < & < * * < < 1 < ",
"* = * < < < < < * * = < < < < < * * = < < < < < < = < < < < < < & < < < < < < < "
};
