/* XPM */
static char *_a8be014850e4d709a4e3ee423d6c7bfWV4ZBIBbBmf5AkDG[] = {
/* columns rows colors chars-per-pixel */
"40 40 97 2 ",
"   c #13172B",
".  c #1B1F2C",
"X  c #1E2125",
"o  c #1E222B",
"O  c #232525",
"+  c #272926",
"@  c #282A27",
"#  c #22252C",
"$  c #26292D",
"%  c #2B2D2B",
"&  c #2F312D",
"*  c #343427",
"=  c #31332F",
"-  c #373829",
";  c #3A3B2C",
":  c #242730",
">  c #262931",
",  c #2A2D32",
"<  c #2E3131",
"1  c #333532",
"2  c #363834",
"3  c #3A3B33",
"4  c #46452C",
"5  c #48472E",
"6  c #4C4A2C",
"7  c #55522E",
"8  c #5E5B2D",
"9  c #4A4A34",
"0  c #565433",
"q  c #595732",
"w  c #5B5831",
"e  c #635E2D",
"r  c #65612E",
"t  c #6F6A2E",
"y  c #726C2F",
"u  c #6A6632",
"i  c #6D6934",
"p  c #746E32",
"a  c #767033",
"s  c #7A7432",
"d  c #837C33",
"f  c #91882E",
"g  c #8E8633",
"h  c #918833",
"j  c #998F34",
"k  c #9D9335",
"l  c #9D9338",
"z  c #A19736",
"x  c #A49935",
"c  c #A99E35",
"v  c #AEA336",
"b  c #B6AA36",
"n  c #BAAD36",
"m  c #C1B336",
"M  c #C7B936",
"N  c #CBBC36",
"B  c #CDBD35",
"V  c #C7B938",
"C  c #D0C037",
"Z  c #D1C237",
"A  c #D4C437",
"S  c #D4C537",
"D  c #D6C637",
"F  c #D9C937",
"G  c #DBCA37",
"H  c #D4C438",
"J  c #D9C938",
"K  c #DCCB38",
"L  c #DDCC39",
"P  c #E0CF39",
"I  c #E0CF3A",
"U  c #E6D537",
"Y  c #E2D139",
"T  c #E7D538",
"R  c #E8D639",
"E  c #EBD93A",
"W  c #ECDB3A",
"Q  c #F0DD39",
"!  c #F2DF39",
"~  c #F4E138",
"^  c #F6E339",
"/  c #F9E63A",
"(  c #FAE63A",
")  c #FBE73A",
"_  c #FBE83A",
"`  c #FDE93B",
"'  c #FEEA3A",
"]  c #FFEC3B",
"[  c #FFEF3A",
"{  c #FFF03A",
"}  c #FFF33B",
"|  c #FFF63B",
" . c #FFF73B",
".. c #FFF83B",
"X. c #FFFC3B",
"o. c #FFFF3B",
"O. c #FFF93C",
/* pixels */
"1 1 1 1 1 1 & % 1 1 1 1 1 & 1 = 1 2 2 1 2 = = = 2 2 2 1 1 = & % < 1 1 1 1 1 & & ",
"1 2 1 1 < < 1 & 1 1 1 1 1 = % # # > > : : # # # # > : > % 1 1 % 1 1 1 1 1 & & % ",
"2 1 1 1 1 1 & % 1 1 1 1 1 , w z l z z z k z k l z z z k 9 , 1 % 1 2 2 1 1 < 1 2 ",
"1 1 1 1 & = & % = 1 1 = = o d o.O.....| ..| O.O.o.O.O.| q $ = @ & < 1 & & & % & ",
"% @ + @ % % % @ @ * - - ; % d ] ( _ ( ' ( ( ( ' ( ' ( ^ 8 * - - - - O @ % % % & ",
"1 , % 1 2 1 1 1 1 n T L T L E [ ' ' ] ] ] ` ] ] ` ' ` ' R L Y I W l O 2 1 1 1 1 ",
"1 = % 1 1 1 , $ $ B | [ [ [ ] ` ' [ ` ` ] ] ` ` ' [ ` ' [ [ [ [  .x   , < 2 1 1 ",
"1 1 % 2 2 1 0 p i K [ ( ' ' ' ' ' ' ` ] ` ] ] ] ` ` ' ' ' ' ' (  .m r a 9 1 1 1 ",
"% @ + % & X j ..' [ ' ' ' ' ' ' ` ' ` ] ` ] ] ] ` [ ` [ ' ' ' ` ' { ] { p o % & ",
"1 = 1 % & X k | _ _ ' ' ` ` ] ] ] ] ] ] ] ] ` ` ` ` ` ' ` ' ' ' ` ' ' ] t o 2 1 ",
"1 1 1 = = o l ..( ' ' ' [ ` ` ] ] ` ] ` ] ` ] ] ] ] ` ] ' ] ' ' ' ' ' [ p o 3 2 ",
"2 1 1 1 & . l | ( ' ' [ ` ] ] ] ] ] ] ` ] ] ` ` ` ] ] ' ] ' ] ] ] ` ` [ y # 3 2 ",
"1 1 1 1 - $ l | ' ' ] ] ` ] ] ` ` ` ] ' ' ` ' ' ' ' ' ' ' ` ' ^ Q ~ Q ' t # 2 2 ",
"% % # e T L Q [ ' ' ` ] ` ] ] ` ] ] ` ] ` [ ` ' ` ` ' ' ' ] F 4 4 5 5 5 = @ @ @ ",
"2 2 , i [ [ ' ' ` ' ] ' ] ' ' ' ` ' ` [ ' ` { { { { { { { | K & % 1 < , = 1 1 & ",
"2 2 > u ' ' ' ' ' ` ] ' ` [ ` ' ' ' ' ' ' [ Q S S H S S S F n * = 2 1 1 1 & & = ",
"2 3 , i [ ' ' ' ] ' ] ` ' ] ` ( ' ( ( ( ( [ m < 2 3 3 2 2 2 1 & 1 2 2 2 1 1 1 1 ",
"% % # r [ ' ' ' ] ` ] ' ` ' `  . . . . .| o.N + + % @ @ @ @ @ + @ @ @ % % @ @ @ ",
"% = X u ' ' ' ' ` ] ` ' ' { K k x z z x z v d & % % % = = & & & % % @ % , & & = ",
"1 1 # i ' ' ` ' ` ] ` ' '  .c o $ # # > > > $ 1 1 = & 1 1 1 1 1 1 = & 1 1 1 1 1 ",
"1 1 # i ' ' ` ' ] ] ] ' ' } v , = = = 2 2 1 1 1 = = & 1 2 1 1 1 1 & % 1 2 1 1 1 ",
"= = # u ' ' ' ' ] ` ` ' ` [ R V N N M V V H z & = & & = 1 1 1 & & & % & & < 1 1 ",
"% @ . e [ ' ' ' ] ] ] ' ` ' [ } { } } } [ ..M # O # O X X X + @ % @ @ + O O , % ",
"2 - $ t [ ' ' ' ` ' ` ] ' ` ` ' ' ' ' ' ( [ C 0 q q 0 0 7 0 0 1 1 1 = 1 % % 2 2 ",
"2 1 : u ' ( ' ' ' ` ] ' ] ' ' ' ' ' ' ' ' ] ( ^ ^ ~ ^ ^ W ( H 3 1 1 1 1 % % 2 2 ",
"2 2 > p  . .[ ' ` ' ] ` ` ] ] ` ` ] ] ` [ ` ` ] ' [ ' [ ' { S 1 > > % : % % 2 2 ",
"% % $ 6 k f M [ ' ' ] ] ] ] ] ] ] ] ] ' ` ' ' ' ' ' ' ' ' [ R h g g g h 6 + % % ",
"1 1 1 % %   h O.' ' ` ` ] ` ` ] ] ` ] ` ' ` ' ' ' ' ' ' ` ' [ { }  .{ O.a # & % ",
"1 1 1 1 2 : j | _ ' ` ] ` ` ` ] ] ] ` ] ] ` ] ] ` ] ] ' ` [ ' ) ' _ ( ' p > = 1 ",
"2 2 1 < - : j | ( ' ] ' [ ] ] ] ` ] ` ] ] ` ] ` ] ] ` ] ' ` ` ' ' ' ' [ p $ = < ",
"1 1 1 1 1 # j O.` ] ' ] ` ` ] ` ` ] ] ] ] ] ` ] ] ` ] ' ` ' ' ' ` ] ] } a $ - < ",
"< % % & 1 # g ( T ( ] ' ' ' ' ' ] ' ] ` ` ] ] ` ` [ ` ' ' ' ' ' ' ^ R Q i $ = < ",
"1 & & 1 2 1 1 3 ; C { _ _ _ ' ' ' ' ] ] ` ] ] ] ` ` ' ` ' ' ( (  .c % 3 2 1 1 1 ",
"1 & & 1 1 1 1 < < S ..| { | { ' ` ' ` ] ` ] ` ` ' [ ` ' [  .{ } X.v # 1 1 1 1 1 ",
"< & & 1 1 1 1 1 = l n n n b C { ` [ ' ' ' ' ' ' ' ' ] ' M n n b m s @ 2 2 1 1 1 ",
"= & % & & & & & & % @ $ % o s { _ ' ' ' ' ' ` [ ` ' ` ( 9 o % % % % % & % % < 1 ",
"1 1 < & & & 1 1 = 1 = = & # d  .[ [ ' ] ] ] ' [ ] ] [ ' 7 @ 1 1 1 1 & & & % 1 2 ",
"1 1 & 1 & & 2 1 1 = 1 & & % 9 i i i u u u u i i i i u u ; % 2 1 1 1 1 & & % 2 2 ",
"2 1 1 < & & 2 2 1 1 1 = % < 2 , , $ > $ # $ < , > , $ , % < 2 2 1 1 1 1 % & 2 2 ",
"1 & & & % % & = < 1 < < & % 1 1 2 = = = & & 1 = 1 = = = % % 1 < & < & & % % < = "
};
